<svg xmlns="http://www.w3.org/2000/svg" width="360.003" height="640" viewBox="0 0 360.003 640">
  <g id="Leave_Application_screen_BG_shape_2" data-name="Leave Application screen BG shape 2" transform="translate(1504.497 -132.74)">
    <path id="Path_32" data-name="Path 32" d="M-1144.494,673.26v99.48h-93c.26-.369.53-.739.78-1.119,15.39-22.841,23.95-50.18,45.07-68.71C-1177.844,690.81-1159.834,683.57-1144.494,673.26Z" transform="translate(0 0)" fill="#e4e9ed"/>
    <path id="Path_33" data-name="Path 33" d="M-1149.234,488.873q2.376,3.81,4.737,7.646V391.976c-11.7,11.146-21.727,22.929-24.37,38.015C-1172.493,450.69-1160.569,470.7-1149.234,488.873Z" transform="translate(0 0)" fill="#e5edf7"/>
    <path id="Path_34" data-name="Path 34" d="M-1421.444,772.74h-83.05V651.421a89.752,89.752,0,0,0,12.23,12.189c13.95,11.46,31.47,19.331,43.13,32.781C-1430.814,717.521-1431.024,747.131-1421.444,772.74Z" transform="translate(0 0)" fill="#e5edf7"/>
    <path id="Path_35" data-name="Path 35" d="M-1483,280.543c-1.248-5.615-5.243-10.521-10.306-13.844a32.664,32.664,0,0,0-11.188-4.649v51.192C-1491.974,303.528-1479.955,294.265-1483,280.543Z" transform="translate(0 0)" fill="#e4e9ed"/>
    <path id="Path_36" data-name="Path 36" d="M-1488.969,425.5c-4.165-8.17-9.777-15.564-15.528-22.894v118.69c8.86-14.686,18-29.211,21.79-45.536A74.226,74.226,0,0,0-1488.969,425.5Z" transform="translate(0 0)" fill="#e4e9ed"/>
    <path id="Path_37" data-name="Path 37" d="M-1349.164,132.74c-1.83.83-3.64,1.681-5.43,2.57-35.05,17.48-63.37,44.381-96,65.48-16.35,10.57-34.77,19.75-53.9,25.04V132.74Z" transform="translate(0)" fill="#e5edf7"/>
    <path id="Path_38" data-name="Path 38" d="M-1144.494,132.74v91.971c-16.34-12.2-33.73-23.651-47.53-38.141-16.84-17.679-28.46-40.02-49.23-53.679l-.24-.151Z" transform="translate(0)" fill="#e4e9ed"/>
  </g>
</svg>
