<svg xmlns="http://www.w3.org/2000/svg" width="272.437" height="215.833" viewBox="0 0 272.437 215.833">
  <g id="Leave_Application_illustration_man_" data-name="Leave Application illustration man " transform="translate(-43.284 -152.407)">
    <path id="Path_821" data-name="Path 821" d="M982.885,244s-1.995,4.025,0,9.948-3.018,2.734-3.018,2.734l-2.81-3.265s-.835-9.037.683-9.417A22.169,22.169,0,0,1,982.885,244Z" transform="translate(-695 -64)" fill="#a0616a"/>
    <path id="Path_336" data-name="Path 336" d="M466.506,424.436a3.673,3.673,0,0,0-3.359-2.248H396.1a3.637,3.637,0,0,0-3.635,3.635v84.825a3.637,3.637,0,0,0,3.635,3.635h67.052a3.64,3.64,0,0,0,3.635-3.635V425.824a3.57,3.57,0,0,0-.276-1.387Zm-.532,86.212a2.831,2.831,0,0,1-2.827,2.827H396.1a2.828,2.828,0,0,1-2.827-2.826V425.824A2.831,2.831,0,0,1,396.1,423h67.053a2.842,2.842,0,0,1,2.624,1.779,3.133,3.133,0,0,1,.106.319,2.807,2.807,0,0,1,.1.73Z" transform="translate(-273.663 -163.71)" fill="#3f3d56"/>
    <path id="Path_337" data-name="Path 337" d="M493.39,460.17h-20.2a1.616,1.616,0,1,1,0-3.232h20.2a1.616,1.616,0,1,1,0,3.232Z" transform="translate(-314.54 -181.664)" fill="#3f3d56"/>
    <path id="Path_338" data-name="Path 338" d="M493.39,477.72h-20.2a1.616,1.616,0,1,1,0-3.232h20.2a1.616,1.616,0,1,1,0,3.232Z" transform="translate(-314.54 -190.732)" fill="#3f3d56"/>
    <path id="Path_339" data-name="Path 339" d="M435.76,468.662H421a1.82,1.82,0,0,1-1.818-1.818V449.427A1.82,1.82,0,0,1,421,447.609H435.76a1.82,1.82,0,0,1,1.818,1.818v17.417a1.82,1.82,0,0,1-1.818,1.818Z" transform="translate(-287.469 -176.844)" fill="#005296"/>
    <path id="Path_340" data-name="Path 340" d="M465.9,513.656H420.254a1.616,1.616,0,1,1,0-3.232H465.9a1.616,1.616,0,0,1,0,3.232Z" transform="translate(-287.187 -209.299)" fill="#9b9b9b"/>
    <path id="Path_341" data-name="Path 341" d="M465.9,531.206H420.254a1.616,1.616,0,0,1,0-3.232H465.9a1.616,1.616,0,1,1,0,3.231Z" transform="translate(-287.187 -218.366)" fill="#9b9b9b"/>
    <path id="Path_342" data-name="Path 342" d="M465.9,548.756H420.254a1.616,1.616,0,0,1,0-3.232H465.9a1.616,1.616,0,0,1,0,3.232Z" transform="translate(-287.187 -227.434)" fill="#9b9b9b"/>
    <path id="Path_343" data-name="Path 343" d="M465.9,566.306H420.254a1.616,1.616,0,0,1,0-3.232H465.9a1.616,1.616,0,0,1,0,3.232Z" transform="translate(-287.187 -236.501)" fill="#9b9b9b"/>
    <path id="Path_344" data-name="Path 344" d="M465.9,583.856H420.254a1.616,1.616,0,1,1,0-3.232H465.9a1.616,1.616,0,0,1,0,3.232Z" transform="translate(-287.187 -245.569)" fill="#9b9b9b"/>
    <circle id="Ellipse_44" data-name="Ellipse 44" cx="15.593" cy="15.593" r="15.593" transform="translate(141.502 206.855)" fill="#f2d91f"/>
    <path id="Path_395" data-name="Path 395" d="M462.839,347.272a1.616,1.616,0,0,1-.973-.323l-.017-.013-3.665-2.8a1.629,1.629,0,0,1,1.982-2.585l2.374,1.82,5.609-7.318a1.628,1.628,0,0,1,2.282-.3h0l-.035.048.036-.048a1.63,1.63,0,0,1,.3,2.283l-6.6,8.6a1.629,1.629,0,0,1-1.3.635Z" transform="translate(-307.29 -118.876)" fill="#fff"/>
    <path id="Path_186" data-name="Path 186" d="M502.544,651.159l.893,1.809,2,.29-1.445,1.409.341,1.989-1.786-.939-1.786.939.341-1.989-1.445-1.409,2-.29Z" transform="translate(-361.444 -288.416)" fill="#005296"/>
    <path id="Path_187" data-name="Path 187" d="M565.119,651.159l.893,1.809,2,.29-1.445,1.409.341,1.989-1.786-.939-1.786.939.341-1.989-1.445-1.409,2-.29Z" transform="translate(-415.985 -288.416)" fill="#005296"/>
    <path id="Path_188" data-name="Path 188" d="M627.694,651.159l.893,1.809,2,.29-1.445,1.409.341,1.989-1.786-.939-1.786.939.341-1.989-1.445-1.409,2-.29Z" transform="translate(-470.526 -288.416)" fill="#005296"/>
    <path id="Path_189" data-name="Path 189" d="M690.269,651.159l.893,1.809,2,.29-1.445,1.409.341,1.989-1.786-.939-1.786.939.341-1.989-1.445-1.409,2-.29Z" transform="translate(-525.067 -288.416)" fill="#005296"/>
    <path id="Path_190" data-name="Path 190" d="M752.844,651.159l.893,1.809,2,.29-1.445,1.409.341,1.989-1.786-.939-1.786.939.341-1.989-1.445-1.409,2-.29Z" transform="translate(-579.608 -288.416)" fill="#ccc"/>
    <circle id="Ellipse_46" data-name="Ellipse 46" cx="10.567" cy="10.567" r="10.567" transform="translate(70.077 209.365)" fill="#9b9b9b"/>
    <path id="Path_408" data-name="Path 408" d="M253.293,310.791a1.1,1.1,0,0,1-.659-.219l-.012-.009-2.483-1.9a1.1,1.1,0,1,1,1.342-1.752l1.608,1.234,3.8-4.957a1.1,1.1,0,0,1,1.546-.2h0l-.024.032.024-.031a1.1,1.1,0,0,1,.2,1.547l-4.471,5.831a1.1,1.1,0,0,1-.878.431Z" transform="translate(-173.697 -86.829)" fill="#fff"/>
    <path id="Path_410" data-name="Path 410" d="M258.447,360.411a2.891,2.891,0,0,0-2.643-1.769H203.043a2.861,2.861,0,0,0-2.86,2.86v66.745a2.861,2.861,0,0,0,2.86,2.86H255.8a2.864,2.864,0,0,0,2.86-2.86V361.5A2.807,2.807,0,0,0,258.447,360.411Zm-.418,67.836a2.228,2.228,0,0,1-2.223,2.223H203.043a2.223,2.223,0,0,1-2.223-2.223h0V361.5a2.228,2.228,0,0,1,2.223-2.223H255.8a2.236,2.236,0,0,1,2.065,1.4,2.461,2.461,0,0,1,.084.251,2.2,2.2,0,0,1,.076.574Z" transform="translate(-148.11 -115.705)" fill="#3a3535"/>
    <path id="Path_411" data-name="Path 411" d="M279.6,388.529H263.707a1.271,1.271,0,0,1,0-2.543H279.6a1.271,1.271,0,0,1,0,2.543Z" transform="translate(-180.274 -129.832)" fill="#9b9b9b"/>
    <path id="Path_412" data-name="Path 412" d="M279.6,402.339H263.707a1.271,1.271,0,0,1,0-2.543H279.6a1.271,1.271,0,0,1,0,2.543Z" transform="translate(-180.274 -136.967)" fill="#9b9b9b"/>
    <path id="Path_413" data-name="Path 413" d="M234.252,395.212H222.638a1.432,1.432,0,0,1-1.43-1.43v-13.7a1.432,1.432,0,0,1,1.43-1.43h11.613a1.432,1.432,0,0,1,1.43,1.43v13.7a1.432,1.432,0,0,1-1.43,1.43Z" transform="translate(-158.973 -126.04)" fill="#9b9b9b"/>
    <path id="Path_414" data-name="Path 414" d="M257.966,430.615H222.051a1.271,1.271,0,1,1,0-2.543h35.915a1.271,1.271,0,0,1,0,2.543Z" transform="translate(-158.751 -151.577)" fill="#9b9b9b"/>
    <path id="Path_415" data-name="Path 415" d="M257.966,444.429H222.051a1.271,1.271,0,1,1,0-2.543h35.915a1.271,1.271,0,1,1,0,2.543Z" transform="translate(-158.751 -158.714)" fill="#9b9b9b"/>
    <path id="Path_416" data-name="Path 416" d="M257.966,458.234H222.051a1.271,1.271,0,1,1,0-2.543h35.915a1.271,1.271,0,1,1,0,2.543Z" transform="translate(-158.751 -165.846)" fill="#9b9b9b"/>
    <path id="Path_417" data-name="Path 417" d="M257.966,472.047H222.051a1.271,1.271,0,1,1,0-2.543h35.915a1.271,1.271,0,0,1,0,2.543Z" transform="translate(-158.751 -172.983)" fill="#9b9b9b"/>
    <path id="Path_418" data-name="Path 418" d="M257.966,485.853H222.051a1.271,1.271,0,1,1,0-2.543h35.915a1.271,1.271,0,0,1,0,2.543Z" transform="translate(-158.751 -180.116)" fill="#9b9b9b"/>
    <path id="Path_419" data-name="Path 419" d="M182.38,508.334h74.159a.38.38,0,0,0,0-.761H182.38a.38.38,0,1,0,0,.761Z" transform="translate(-138.714 -192.652)" fill="#ccc"/>
    <path id="Path_314" data-name="Path 314" d="M368.365,180.322H365.2v-4.4h.968v3.52h2.194Z" transform="translate(-303.332 142.405)" fill="#9b9b9b"/>
    <path id="Path_315" data-name="Path 315" d="M384.428,182.088c0,.042,0,.122-.013.239H382.07a.82.82,0,0,0,.283.49.842.842,0,0,0,.541.17,1.174,1.174,0,0,0,.817-.346l.547.484a1.679,1.679,0,0,1-1.377.629,1.729,1.729,0,0,1-1.263-.487,1.679,1.679,0,0,1-.5-1.254V182a1.765,1.765,0,0,1,.472-1.245,1.558,1.558,0,0,1,1.194-.509,1.468,1.468,0,0,1,1.219.528,2.022,2.022,0,0,1,.421,1.3Zm-.93-.358a.913.913,0,0,0-.23-.522.634.634,0,0,0-.481-.195.652.652,0,0,0-.481.192.942.942,0,0,0-.249.525Z" transform="translate(-315.686 139.049)" fill="#9b9b9b"/>
    <path id="Path_316" data-name="Path 316" d="M401.262,183.765h-.924V183.4a1.3,1.3,0,0,1-1.018.427,1.253,1.253,0,0,1-.827-.273.93.93,0,0,1-.33-.757v-.013a.935.935,0,0,1,.368-.8,1.638,1.638,0,0,1,.99-.27,2.521,2.521,0,0,1,.824.138v-.056q0-.616-.723-.616a2.707,2.707,0,0,0-.93.182l-.239-.729a3.219,3.219,0,0,1,1.308-.27,1.306,1.306,0,0,1,1.5,1.452Zm-.905-1.188v-.17a1.43,1.43,0,0,0-.61-.126.853.853,0,0,0-.484.119.392.392,0,0,0-.176.346v.013a.355.355,0,0,0,.145.3.606.606,0,0,0,.377.11.837.837,0,0,0,.541-.167A.521.521,0,0,0,400.357,182.577Z" transform="translate(-328.912 138.962)" fill="#9b9b9b"/>
    <path id="Path_317" data-name="Path 317" d="M417.293,180.526l-1.326,3.395H415.1l-1.326-3.395h1.012l.754,2.257.761-2.257Z" transform="translate(-341.027 138.831)" fill="#9b9b9b"/>
    <path id="Path_318" data-name="Path 318" d="M433.7,182.088c0,.042,0,.122-.013.239h-2.345a.821.821,0,0,0,.283.49.842.842,0,0,0,.541.17,1.175,1.175,0,0,0,.817-.346l.547.484a1.678,1.678,0,0,1-1.377.629,1.729,1.729,0,0,1-1.263-.487,1.68,1.68,0,0,1-.5-1.254V182a1.764,1.764,0,0,1,.472-1.245,1.557,1.557,0,0,1,1.194-.509,1.467,1.467,0,0,1,1.219.528,2.021,2.021,0,0,1,.422,1.3Zm-.93-.358a.912.912,0,0,0-.23-.522.633.633,0,0,0-.481-.195.653.653,0,0,0-.481.192.944.944,0,0,0-.248.525Z" transform="translate(-353.925 139.049)" fill="#9b9b9b"/>
    <path id="Path_319" data-name="Path 319" d="M460.555,176.8h-2.383v.937h2.1v.88h-2.1v1.7H457.2v-4.4h3.35Z" transform="translate(-374.735 142.405)" fill="#9b9b9b"/>
    <path id="Path_320" data-name="Path 320" d="M477.667,182a1.667,1.667,0,0,1-.525,1.244,1.921,1.921,0,0,1-2.6,0,1.66,1.66,0,0,1-.519-1.235V182a1.667,1.667,0,0,1,.525-1.245,1.922,1.922,0,0,1,2.6,0,1.66,1.66,0,0,1,.519,1.235Zm-.943.012V182a.944.944,0,0,0-.248-.657.823.823,0,0,0-.638-.273.815.815,0,0,0-.635.264.94.94,0,0,0-.239.654V182a.943.943,0,0,0,.248.657.823.823,0,0,0,.638.274.815.815,0,0,0,.635-.264A.938.938,0,0,0,476.724,182.012Z" transform="translate(-387.786 139.049)" fill="#9b9b9b"/>
    <path id="Path_321" data-name="Path 321" d="M495.424,181.241h-.05a.963.963,0,0,0-.757.3,1.3,1.3,0,0,0-.267.889v1.245h-.956V180.3h.956v.679a1.057,1.057,0,0,1,1.075-.742Z" transform="translate(-402.82 139.053)" fill="#9b9b9b"/>
    <path id="Path_322" data-name="Path 322" d="M510.271,183.678h-.955V181.8q0-.685-.56-.685a.534.534,0,0,0-.424.176.75.75,0,0,0-.154.509v1.88h-.956V181.8q0-.685-.559-.685a.534.534,0,0,0-.424.176.75.75,0,0,0-.154.509v1.88h-.955v-3.369h.955v.478a1.234,1.234,0,0,1,.993-.541.98.98,0,0,1,.949.534,1.41,1.41,0,0,1,1.106-.534,1.1,1.1,0,0,1,.839.317,1.3,1.3,0,0,1,.3.921Z" transform="translate(-411.928 139.049)" fill="#9b9b9b"/>
    <circle id="Ellipse_46-2" data-name="Ellipse 46" cx="10.567" cy="10.567" r="10.567" transform="translate(220.433 209.365)" fill="#9b9b9b"/>
    <path id="Path_408-2" data-name="Path 408" d="M253.293,310.791a1.1,1.1,0,0,1-.659-.219l-.012-.009-2.483-1.9a1.1,1.1,0,1,1,1.342-1.752l1.608,1.234,3.8-4.957a1.1,1.1,0,0,1,1.546-.2h0l-.024.032.024-.031a1.1,1.1,0,0,1,.2,1.547l-4.471,5.831a1.1,1.1,0,0,1-.878.431Z" transform="translate(-23.341 -86.829)" fill="#fff"/>
    <path id="Path_410-2" data-name="Path 410" d="M258.447,360.411a2.891,2.891,0,0,0-2.643-1.769H203.043a2.861,2.861,0,0,0-2.86,2.86v66.745a2.861,2.861,0,0,0,2.86,2.86H255.8a2.864,2.864,0,0,0,2.86-2.86V361.5A2.807,2.807,0,0,0,258.447,360.411Zm-.418,67.836a2.228,2.228,0,0,1-2.223,2.223H203.043a2.223,2.223,0,0,1-2.223-2.223h0V361.5a2.228,2.228,0,0,1,2.223-2.223H255.8a2.236,2.236,0,0,1,2.065,1.4,2.461,2.461,0,0,1,.084.251,2.2,2.2,0,0,1,.076.574Z" transform="translate(2.246 -115.705)" fill="#3a3535"/>
    <path id="Path_411-2" data-name="Path 411" d="M279.6,388.529H263.707a1.271,1.271,0,0,1,0-2.543H279.6a1.271,1.271,0,0,1,0,2.543Z" transform="translate(-29.918 -129.832)" fill="#9b9b9b"/>
    <path id="Path_412-2" data-name="Path 412" d="M279.6,402.339H263.707a1.271,1.271,0,0,1,0-2.543H279.6a1.271,1.271,0,0,1,0,2.543Z" transform="translate(-29.918 -136.967)" fill="#9b9b9b"/>
    <path id="Path_413-2" data-name="Path 413" d="M234.252,395.212H222.638a1.432,1.432,0,0,1-1.43-1.43v-13.7a1.432,1.432,0,0,1,1.43-1.43h11.613a1.432,1.432,0,0,1,1.43,1.43v13.7a1.432,1.432,0,0,1-1.43,1.43Z" transform="translate(-8.617 -126.04)" fill="#9b9b9b"/>
    <path id="Path_414-2" data-name="Path 414" d="M257.966,430.615H222.051a1.271,1.271,0,1,1,0-2.543h35.915a1.271,1.271,0,0,1,0,2.543Z" transform="translate(-8.395 -151.577)" fill="#9b9b9b"/>
    <path id="Path_415-2" data-name="Path 415" d="M257.966,444.429H222.051a1.271,1.271,0,1,1,0-2.543h35.915a1.271,1.271,0,1,1,0,2.543Z" transform="translate(-8.395 -158.714)" fill="#9b9b9b"/>
    <path id="Path_416-2" data-name="Path 416" d="M257.966,458.234H222.051a1.271,1.271,0,1,1,0-2.543h35.915a1.271,1.271,0,1,1,0,2.543Z" transform="translate(-8.395 -165.846)" fill="#9b9b9b"/>
    <path id="Path_417-2" data-name="Path 417" d="M257.966,472.047H222.051a1.271,1.271,0,1,1,0-2.543h35.915a1.271,1.271,0,0,1,0,2.543Z" transform="translate(-8.395 -172.983)" fill="#9b9b9b"/>
    <path id="Path_418-2" data-name="Path 418" d="M257.966,485.853H222.051a1.271,1.271,0,1,1,0-2.543h35.915a1.271,1.271,0,0,1,0,2.543Z" transform="translate(-8.395 -180.116)" fill="#9b9b9b"/>
    <path id="Path_419-2" data-name="Path 419" d="M182.38,508.334h74.159a.38.38,0,0,0,0-.761H182.38a.38.38,0,1,0,0,.761Z" transform="translate(11.642 -192.652)" fill="#ccc"/>
    <path id="Path_314-2" data-name="Path 314" d="M368.365,180.322H365.2v-4.4h.968v3.52h2.194Z" transform="translate(-152.977 142.405)" fill="#9b9b9b"/>
    <path id="Path_315-2" data-name="Path 315" d="M384.428,182.088c0,.042,0,.122-.013.239H382.07a.82.82,0,0,0,.283.49.842.842,0,0,0,.541.17,1.174,1.174,0,0,0,.817-.346l.547.484a1.679,1.679,0,0,1-1.377.629,1.729,1.729,0,0,1-1.263-.487,1.679,1.679,0,0,1-.5-1.254V182a1.765,1.765,0,0,1,.472-1.245,1.558,1.558,0,0,1,1.194-.509,1.468,1.468,0,0,1,1.219.528,2.022,2.022,0,0,1,.421,1.3Zm-.93-.358a.913.913,0,0,0-.23-.522.634.634,0,0,0-.481-.195.652.652,0,0,0-.481.192.942.942,0,0,0-.249.525Z" transform="translate(-165.331 139.049)" fill="#9b9b9b"/>
    <path id="Path_316-2" data-name="Path 316" d="M401.262,183.765h-.924V183.4a1.3,1.3,0,0,1-1.018.427,1.253,1.253,0,0,1-.827-.273.93.93,0,0,1-.33-.757v-.013a.935.935,0,0,1,.368-.8,1.638,1.638,0,0,1,.99-.27,2.521,2.521,0,0,1,.824.138v-.056q0-.616-.723-.616a2.707,2.707,0,0,0-.93.182l-.239-.729a3.219,3.219,0,0,1,1.308-.27,1.306,1.306,0,0,1,1.5,1.452Zm-.905-1.188v-.17a1.43,1.43,0,0,0-.61-.126.853.853,0,0,0-.484.119.392.392,0,0,0-.176.346v.013a.355.355,0,0,0,.145.3.606.606,0,0,0,.377.11.837.837,0,0,0,.541-.167A.521.521,0,0,0,400.357,182.577Z" transform="translate(-178.557 138.962)" fill="#9b9b9b"/>
    <path id="Path_317-2" data-name="Path 317" d="M417.293,180.526l-1.326,3.395H415.1l-1.326-3.395h1.012l.754,2.257.761-2.257Z" transform="translate(-190.672 138.831)" fill="#9b9b9b"/>
    <path id="Path_318-2" data-name="Path 318" d="M433.7,182.088c0,.042,0,.122-.013.239h-2.345a.821.821,0,0,0,.283.49.842.842,0,0,0,.541.17,1.175,1.175,0,0,0,.817-.346l.547.484a1.678,1.678,0,0,1-1.377.629,1.729,1.729,0,0,1-1.263-.487,1.68,1.68,0,0,1-.5-1.254V182a1.764,1.764,0,0,1,.472-1.245,1.557,1.557,0,0,1,1.194-.509,1.467,1.467,0,0,1,1.219.528,2.021,2.021,0,0,1,.422,1.3Zm-.93-.358a.912.912,0,0,0-.23-.522.633.633,0,0,0-.481-.195.653.653,0,0,0-.481.192.944.944,0,0,0-.248.525Z" transform="translate(-203.57 139.049)" fill="#9b9b9b"/>
    <path id="Path_319-2" data-name="Path 319" d="M460.555,176.8h-2.383v.937h2.1v.88h-2.1v1.7H457.2v-4.4h3.35Z" transform="translate(-224.379 142.405)" fill="#9b9b9b"/>
    <path id="Path_320-2" data-name="Path 320" d="M477.667,182a1.667,1.667,0,0,1-.525,1.244,1.921,1.921,0,0,1-2.6,0,1.66,1.66,0,0,1-.519-1.235V182a1.667,1.667,0,0,1,.525-1.245,1.922,1.922,0,0,1,2.6,0,1.66,1.66,0,0,1,.519,1.235Zm-.943.012V182a.944.944,0,0,0-.248-.657.823.823,0,0,0-.638-.273.815.815,0,0,0-.635.264.94.94,0,0,0-.239.654V182a.943.943,0,0,0,.248.657.823.823,0,0,0,.638.274.815.815,0,0,0,.635-.264A.938.938,0,0,0,476.724,182.012Z" transform="translate(-237.43 139.049)" fill="#9b9b9b"/>
    <path id="Path_321-2" data-name="Path 321" d="M495.424,181.241h-.05a.963.963,0,0,0-.757.3,1.3,1.3,0,0,0-.267.889v1.245h-.956V180.3h.956v.679a1.057,1.057,0,0,1,1.075-.742Z" transform="translate(-252.465 139.053)" fill="#9b9b9b"/>
    <path id="Path_322-2" data-name="Path 322" d="M510.271,183.678h-.955V181.8q0-.685-.56-.685a.534.534,0,0,0-.424.176.75.75,0,0,0-.154.509v1.88h-.956V181.8q0-.685-.559-.685a.534.534,0,0,0-.424.176.75.75,0,0,0-.154.509v1.88h-.955v-3.369h.955v.478a1.234,1.234,0,0,1,.993-.541.98.98,0,0,1,.949.534,1.41,1.41,0,0,1,1.106-.534,1.1,1.1,0,0,1,.839.317,1.3,1.3,0,0,1,.3.921Z" transform="translate(-261.573 139.049)" fill="#9b9b9b"/>
    <path id="Path_314-3" data-name="Path 314" d="M369.41,181.776H365.2v-5.854h1.288v4.683h2.919Z" transform="translate(-232.109 178.909)" fill="#005199"/>
    <path id="Path_315-3" data-name="Path 315" d="M385.52,182.7c0,.056-.006.162-.017.318h-3.119a1.09,1.09,0,0,0,.376.652,1.119,1.119,0,0,0,.719.226,1.562,1.562,0,0,0,1.087-.46l.728.644a2.233,2.233,0,0,1-1.832.836,2.3,2.3,0,0,1-1.681-.648,2.234,2.234,0,0,1-.661-1.669v-.016a2.348,2.348,0,0,1,.627-1.656,2.073,2.073,0,0,1,1.589-.677,1.952,1.952,0,0,1,1.622.7,2.689,2.689,0,0,1,.561,1.731Zm-1.238-.476a1.216,1.216,0,0,0-.305-.694.844.844,0,0,0-.64-.259.868.868,0,0,0-.64.255,1.254,1.254,0,0,0-.331.7Z" transform="translate(-243.286 175.873)" fill="#005199"/>
    <path id="Path_316-3" data-name="Path 316" d="M402.286,184.891h-1.229v-.485a1.732,1.732,0,0,1-1.355.569,1.667,1.667,0,0,1-1.1-.364,1.237,1.237,0,0,1-.439-1.008v-.017a1.244,1.244,0,0,1,.489-1.071,2.179,2.179,0,0,1,1.317-.36,3.352,3.352,0,0,1,1.1.184v-.075q0-.82-.962-.82a3.6,3.6,0,0,0-1.238.243l-.318-.97a4.281,4.281,0,0,1,1.74-.36,1.738,1.738,0,0,1,2,1.932Zm-1.2-1.581v-.226a1.9,1.9,0,0,0-.811-.167,1.135,1.135,0,0,0-.644.159.521.521,0,0,0-.234.46v.017a.472.472,0,0,0,.192.4.806.806,0,0,0,.5.147,1.114,1.114,0,0,0,.719-.222A.694.694,0,0,0,401.081,183.31Z" transform="translate(-255.252 175.795)" fill="#005199"/>
    <path id="Path_317-3" data-name="Path 317" d="M418.456,180.526l-1.765,4.516h-1.154l-1.765-4.516h1.347l1,3,1.012-3Z" transform="translate(-266.212 175.677)" fill="#005199"/>
    <path id="Path_318-3" data-name="Path 318" d="M434.791,182.7c0,.056-.006.162-.017.318h-3.119a1.092,1.092,0,0,0,.376.652,1.12,1.12,0,0,0,.719.226,1.563,1.563,0,0,0,1.087-.46l.727.644a2.233,2.233,0,0,1-1.831.836,2.3,2.3,0,0,1-1.681-.648,2.235,2.235,0,0,1-.661-1.669v-.016a2.347,2.347,0,0,1,.628-1.656,2.071,2.071,0,0,1,1.589-.677,1.953,1.953,0,0,1,1.622.7,2.689,2.689,0,0,1,.561,1.731Zm-1.238-.476a1.214,1.214,0,0,0-.306-.694.843.843,0,0,0-.64-.259.868.868,0,0,0-.64.255,1.256,1.256,0,0,0-.33.7Z" transform="translate(-277.881 175.873)" fill="#005199"/>
    <path id="Path_319-3" data-name="Path 319" d="M461.662,177.093h-3.17v1.246h2.793v1.171h-2.793v2.266H457.2v-5.854h4.457Z" transform="translate(-296.707 178.909)" fill="#005199"/>
    <path id="Path_320-3" data-name="Path 320" d="M478.871,182.579a2.219,2.219,0,0,1-.7,1.656,2.556,2.556,0,0,1-3.462,0,2.209,2.209,0,0,1-.69-1.643v-.016a2.218,2.218,0,0,1,.7-1.656,2.557,2.557,0,0,1,3.462,0,2.207,2.207,0,0,1,.69,1.643Zm-1.254.016v-.016a1.256,1.256,0,0,0-.33-.874,1.1,1.1,0,0,0-.849-.363,1.084,1.084,0,0,0-.845.351,1.25,1.25,0,0,0-.318.87v.017a1.255,1.255,0,0,0,.33.874,1.181,1.181,0,0,0,1.694.013A1.248,1.248,0,0,0,477.617,182.6Z" transform="translate(-308.514 175.873)" fill="#005199"/>
    <path id="Path_321-3" data-name="Path 321" d="M496.094,181.572h-.067a1.282,1.282,0,0,0-1.008.4,1.725,1.725,0,0,0-.355,1.183v1.656h-1.271v-4.483h1.271v.9a1.406,1.406,0,0,1,1.43-.987Z" transform="translate(-322.116 175.877)" fill="#005199"/>
    <path id="Path_322-3" data-name="Path 322" d="M511.97,184.812H510.7v-2.5q0-.911-.744-.911a.711.711,0,0,0-.564.234,1,1,0,0,0-.205.677v2.5h-1.271v-2.5q0-.911-.744-.911a.711.711,0,0,0-.564.234,1,1,0,0,0-.2.677v2.5h-1.271v-4.483H506.4v.636a1.642,1.642,0,0,1,1.321-.719,1.3,1.3,0,0,1,1.263.711,1.877,1.877,0,0,1,1.472-.711,1.457,1.457,0,0,1,1.116.422,1.722,1.722,0,0,1,.4,1.225Z" transform="translate(-330.356 175.873)" fill="#005199"/>
    <path id="Path_284" data-name="Path 284" d="M987.557,418.047a4.9,4.9,0,0,1-1.294-7.4L981.154,373.3l10.643.522,1.671,36.425a4.926,4.926,0,0,1-5.91,7.8Z" transform="translate(-683.243 -152.246)" fill="#a0616a"/>
    <path id="Path_285" data-name="Path 285" d="M982.543,346.612a2,2,0,0,1-.812.575l-9.564,3.65a2.009,2.009,0,0,1-2.552-1.06l-8.473-19.04a7.956,7.956,0,0,1-.389-5.63,7.738,7.738,0,0,1,5.889-5.28,7.38,7.38,0,0,1,3.179.045,7.707,7.707,0,0,1,5.539,4.815l7.533,19.913A2.014,2.014,0,0,1,982.543,346.612Z" transform="translate(-672.526 -124.539)" fill="#ccc"/>
    <path id="Path_286" data-name="Path 286" d="M893.44,627.049h-6.617l-2.4-25.644,9.017.121Z" transform="translate(-633.265 -270.1)" fill="#a0616a"/>
    <path id="Path_287" data-name="Path 287" d="M871.018,650.551h12.76v8.035h-20.8a8.036,8.036,0,0,1,8.035-8.035Z" transform="translate(-622.187 -295.492)" fill="#2f2e41"/>
    <path id="Path_288" data-name="Path 288" d="M956.294,627.179h-6.617l-3.148-25.524H956.3Z" transform="translate(-665.354 -270.229)" fill="#a0616a"/>
    <path id="Path_289" data-name="Path 289" d="M934.672,650.551h12.76v8.035h-20.8a8.035,8.035,0,0,1,8.035-8.035Z" transform="translate(-655.075 -295.492)" fill="#2f2e41"/>
    <path id="Path_290" data-name="Path 290" d="M922.953,534.226l-10.392-.769a2.432,2.432,0,0,1-2.25-2.3l-2.317-47.892a1.889,1.889,0,0,0-3.737-.29l-9.667,47.178a2.432,2.432,0,0,1-2.573,1.933l-9.4-.752a2.429,2.429,0,0,1-2.228-2.615c0-.016,0-.032,0-.048l8.716-87.157a2.429,2.429,0,0,1,2.933-2.131l33.144,7.205A2.435,2.435,0,0,1,927.1,449l-1.543,82.849a2.43,2.43,0,0,1-2.423,2.384Q923.045,534.232,922.953,534.226Z" transform="translate(-631.18 -186.357)" fill="#2f2e41"/>
    <circle id="Ellipse_40" data-name="Ellipse 40" cx="13.257" cy="13.257" r="13.257" transform="translate(269.424 155.766)" fill="#a0616a"/>
    <path id="Path_291" data-name="Path 291" d="M902.875,377.133a11.853,11.853,0,0,1-3.937-9.1c0-19.054,16.493-61.625,17.009-62.95.048-.32.483-.458,2.768-2s5.579-1.781,9.791-.7a2.417,2.417,0,0,1,1.754,1.791l.783,1.132a1.885,1.885,0,0,0,1.1,1.3c3.4,1.431,14.194,8.031,10.515,32.866-3.417,23.071-4.8,36.636-5.242,41.4a2.424,2.424,0,0,1-2.2,2.194c-1.666.149-4.524.348-7.927.348C919.4,383.4,908.57,382.34,902.875,377.133Z" transform="translate(-640.763 -115.258)" fill="#ccc"/>
    <path id="Path_292" data-name="Path 292" d="M873.777,399.62a4.9,4.9,0,0,1,3.049-6.867L893.393,358.9l8.546,6.364-18.909,31.177a4.926,4.926,0,0,1-9.252,3.181Z" transform="translate(-627.507 -144.804)" fill="#a0616a"/>
    <path id="Path_293" data-name="Path 293" d="M921.12,340.713a2,2,0,0,1-.995.025l-9.976-2.3a2.009,2.009,0,0,1-1.529-2.3l3.577-20.531a7.955,7.955,0,0,1,2.814-4.892,7.739,7.739,0,0,1,7.832-1.1,7.383,7.383,0,0,1,2.615,1.809,7.708,7.708,0,0,1,1.916,7.085l-4.842,20.731A2.014,2.014,0,0,1,921.12,340.713Z" transform="translate(-645.752 -119.029)" fill="#ccc"/>
    <path id="Path_294" data-name="Path 294" d="M928.939,259.863a5.712,5.712,0,0,1-1.533-5.066c.462-2.417.734-4,.786-4.575h0c.176-1.969-1.814-3.563-3.784-3.818-.076-.01-.14-.016-.193-.021.048.048.1.1.151.145.374.351.839.789.729,1.24-.067.272-.315.464-.759.589a6.43,6.43,0,0,1-7.465-2.492,5.953,5.953,0,0,1-1.136-2.482c-.721-3.538,1.2-6.554,2.939-8.461,1.434-1.572,3.758-3.48,6.69-3.644,2.279-.127,4.99,1.185,5.8,3.549a4.4,4.4,0,0,1,3.431-1.933,7.914,7.914,0,0,1,4.4,1.225,14.685,14.685,0,0,1-5.2,27.343,5.611,5.611,0,0,1-.936.079,5.462,5.462,0,0,1-3.927-1.676Z" transform="translate(-649.362 -78.862)" fill="#2f2e41"/>
    <path id="Path_349" data-name="Path 349" d="M821.485,667.7h94.25a.483.483,0,0,0,0-.967h-94.25a.483.483,0,0,0,0,.967Z" transform="translate(-600.498 -303.852)" fill="#3f3d56"/>
  </g>
</svg>
