<svg xmlns="http://www.w3.org/2000/svg" width="360" height="640" viewBox="0 0 360 640">
  <g id="Noticfication_screen_BG_shape_4" data-name="Noticfication screen BG shape 4" transform="translate(677 -132.74)">
    <path id="Path_815" data-name="Path 815" d="M-521.67,132.74c-1.83.83-3.64,1.681-5.43,2.57-35.05,17.48-63.37,44.381-96,65.48-16.35,10.571-34.77,19.75-53.9,25.041V132.74Z" fill="#e4e9ed"/>
    <path id="Path_816" data-name="Path 816" d="M-378.45,132.74c10.15,18.79,15.32,40.09,17.59,61.12,3.13,29.16,1.4,59.28,11.88,86.94,5.94,15.68,17.41,30.59,31.98,40.01V132.74Z" fill="#e5edf7"/>
    <path id="Path_817" data-name="Path 817" d="M-336.53,438.264c-2.252-13.571,6.8-27.18,19.53-34.389V471.66c-2.884-3.908-5.772-7.813-8.6-11.757C-330.391,453.208-335.214,446.2-336.53,438.264Z" fill="#e4e9ed"/>
    <path id="Path_818" data-name="Path 818" d="M-677,703.56v69.18h123.81c-11.53-9.42-23.07-18.8-36.05-26.39C-616.92,730.181-651.88,721.341-677,703.56Z" fill="#e5edf7"/>
    <path id="Path_819" data-name="Path 819" d="M-365.31,772.72h12.27c.56,0,1.12-.01,1.67-.03v.05H-317V609.44c-21.93,30.92-45.41,61.75-50,97.3C-369.76,728.06-365.83,751-365.31,772.72Z" fill="#e4e9ed"/>
    <path id="Path_820" data-name="Path 820" d="M-677,575.1V387.825c20.15,26.712,40.939,54.321,42.541,86.4C-632.631,510.865-656.2,543.485-677,575.1Z" fill="#e4e9ed"/>
  </g>
</svg>
