<svg xmlns="http://www.w3.org/2000/svg" width="228.772" height="212.576" viewBox="0 0 228.772 212.576">
  <g id="Notification_illustration_man_" data-name="Notification illustration man " transform="translate(-61 -135.491)">
    <path id="Path_541" data-name="Path 541" d="M797.2,341.762a1.821,1.821,0,1,0,0-3.642H711.359a1.821,1.821,0,0,0,0,3.642Z" transform="translate(-516.43 -84.917)" fill="#e6e6e6"/>
    <circle id="Ellipse_60" data-name="Ellipse 60" cx="6.419" cy="6.419" r="6.419" transform="translate(155.162 244.767)" fill="#005296"/>
    <circle id="Ellipse_61" data-name="Ellipse 61" cx="6.419" cy="6.419" r="6.419" transform="translate(155.162 202.244)" fill="#005296"/>
    <circle id="Ellipse_62" data-name="Ellipse 62" cx="6.419" cy="6.419" r="6.419" transform="translate(155.162 159.721)" fill="#005296"/>
    <path id="Path_531" data-name="Path 531" d="M685.392,80.112a1.935,1.935,0,0,0-1.933,1.933v21.487a1.935,1.935,0,0,0,1.933,1.933H788.271a1.935,1.935,0,0,0,1.933-1.933V82.045a1.935,1.935,0,0,0-1.933-1.933Z" transform="translate(-500.432 73.352)" fill="#e6e6e6"/>
    <path id="Path_532" data-name="Path 532" d="M688.478,84.011a1.122,1.122,0,0,0-1.121,1.121v20.1a1.122,1.122,0,0,0,1.121,1.121H789.967a1.122,1.122,0,0,0,1.12-1.121v-20.1a1.122,1.122,0,0,0-1.12-1.121Z" transform="translate(-502.823 70.96)" fill="#fff"/>
    <path id="Path_533" data-name="Path 533" d="M797.2,121.762a1.821,1.821,0,1,0,0-3.642H711.359a1.821,1.821,0,0,0,0,3.642Z" transform="translate(-516.43 50.037)" fill="#e6e6e6"/>
    <path id="Path_534" data-name="Path 534" d="M748.3,101.3a1.821,1.821,0,1,0,0-3.642H711.36a1.821,1.821,0,1,0,0,3.642Z" transform="translate(-516.43 62.59)" fill="#f2d91f"/>
    <path id="Path_535" data-name="Path 535" d="M685.392,190.112a1.935,1.935,0,0,0-1.933,1.933v21.487a1.935,1.935,0,0,0,1.933,1.933H788.271a1.935,1.935,0,0,0,1.933-1.933V192.045a1.935,1.935,0,0,0-1.933-1.933Z" transform="translate(-500.432 5.875)" fill="#e6e6e6"/>
    <path id="Path_536" data-name="Path 536" d="M688.478,194.011a1.122,1.122,0,0,0-1.121,1.121v20.1a1.122,1.122,0,0,0,1.121,1.121H789.967a1.122,1.122,0,0,0,1.12-1.121v-20.1a1.122,1.122,0,0,0-1.12-1.121Z" transform="translate(-502.823 3.484)" fill="#fff"/>
    <path id="Path_537" data-name="Path 537" d="M797.2,231.762a1.821,1.821,0,1,0,0-3.642H711.359a1.821,1.821,0,0,0,0,3.642Z" transform="translate(-516.43 -17.44)" fill="#e6e6e6"/>
    <path id="Path_538" data-name="Path 538" d="M748.3,211.3a1.821,1.821,0,1,0,0-3.642H711.36a1.821,1.821,0,1,0,0,3.642Z" transform="translate(-516.43 -4.887)" fill="#f2d91f"/>
    <path id="Path_539" data-name="Path 539" d="M685.392,300.112a1.935,1.935,0,0,0-1.933,1.933v21.487a1.935,1.935,0,0,0,1.933,1.933H788.271a1.935,1.935,0,0,0,1.933-1.933V302.045a1.935,1.935,0,0,0-1.933-1.933Z" transform="translate(-500.432 -61.602)" fill="#e6e6e6"/>
    <path id="Path_540" data-name="Path 540" d="M688.478,304.011a1.122,1.122,0,0,0-1.121,1.121v20.1a1.122,1.122,0,0,0,1.121,1.121H789.967a1.122,1.122,0,0,0,1.12-1.121v-20.1a1.122,1.122,0,0,0-1.12-1.121Z" transform="translate(-502.823 -63.993)" fill="#fff"/>
    <path id="Path_542" data-name="Path 542" d="M748.3,321.3a1.821,1.821,0,1,0,0-3.642H711.36a1.821,1.821,0,1,0,0,3.642Z" transform="translate(-516.43 -72.364)" fill="#f2d91f"/>
    <g id="Group_538" data-name="Group 538">
      <path id="Path_821" data-name="Path 821" d="M982.885,244s-1.995,4.025,0,9.948-3.018,2.734-3.018,2.734l-2.81-3.265s-.835-9.037.683-9.417A22.169,22.169,0,0,1,982.885,244Z" transform="translate(-877 -82)" fill="#9f616a"/>
      <g id="Group_353" data-name="Group 353" transform="translate(61 135.491)">
        <path id="Path_444" data-name="Path 444" d="M416.417,404.092l.62-3.1s9.124-3.1,10.144,3.1Z" transform="translate(-379.765 -368.187)" fill="#e6e6e6"/>
        <path id="Path_445" data-name="Path 445" d="M226.292,731.159h5.981l2.846-23.071h-8.828Z" transform="translate(-172.13 -524.483)" fill="#9f616a"/>
        <path id="Path_446" data-name="Path 446" d="M455.222,819.464H467a7.507,7.507,0,0,1,7.507,7.506v.244H455.222Z" transform="translate(-402.585 -614.741)" fill="#2f2e41"/>
        <path id="Path_447" data-name="Path 447" d="M156.292,731.159h5.981l2.846-23.071h-8.828Z" transform="translate(-130.964 -524.483)" fill="#9f616a"/>
        <path id="Path_448" data-name="Path 448" d="M385.222,819.464H397a7.507,7.507,0,0,1,7.507,7.506v.244H385.222Z" transform="translate(-361.419 -614.741)" fill="#2f2e41"/>
        <path id="Path_449" data-name="Path 449" d="M146.762,380.257l-6.823-.62-4.342,20.47.62,18.609,6.823,24.812,9.3-5.583-4.962-25.432Z" transform="translate(-118.794 -331.326)" fill="#2f2e41"/>
        <path id="Path_450" data-name="Path 450" d="M151.742,525.929l1.527,13.026,1.435,30.394-3.3,45.293,11.785-.632,5.777-47.142,3.528-21.71,4.962,24.812,3.1,46.522,12.1-.969V569.806l.31-33.332-4.342-13.026Z" transform="translate(-128.093 -415.899)" fill="#2f2e41"/>
        <path id="Path_451" data-name="Path 451" d="M405.8,406.274s-4.342-6.2-12.406-1.861l-3.722,4.962-11.786,8.684,2.481,29.154-3.1,36.6,44.041-.62-7.443-36.6V407.514Z" transform="translate(-356.74 -369.748)" fill="#2f2e41"/>
        <path id="Path_452" data-name="Path 452" d="M150.848,404.632l-3.556,42.526,4.487-23.047Z" transform="translate(-125.672 -346.025)" opacity="0.25"/>
        <path id="Path_453" data-name="Path 453" d="M545.236,533.18a4.575,4.575,0,0,1-5.995-3.644l-10.149-2.508.02-6.539,14.283,3.743a4.6,4.6,0,0,1,1.841,8.948Z" transform="translate(-446.028 -438.918)" fill="#9f616a"/>
        <rect id="Rectangle_223" data-name="Rectangle 223" width="9.925" height="4.342" transform="matrix(0.172, -0.985, 0.985, 0.172, 86.889, 91.271)" fill="#e6e6e6"/>
        <circle id="Ellipse_57" data-name="Ellipse 57" cx="12.456" cy="12.456" r="12.456" transform="translate(25.25 11.949) rotate(-28.663)" fill="#9f616a"/>
        <path id="Path_454" data-name="Path 454" d="M409.782,354.44a12.635,12.635,0,0,1-8.266-23.747,14.775,14.775,0,0,1,6.976-1.252c3.725.2,7.346,1.573,11.075,1.471l.54.869,2.037-.494.437,1.617.537-.019a3.089,3.089,0,0,1-2.613,4.322,12.066,12.066,0,0,1-2.347-.511,2.364,2.364,0,0,0-2.251.467c-.7.771-.4,1.973-.251,3.007s-.22,2.425-1.263,2.459c-.533.017-1.04-.365-1.563-.264A1.269,1.269,0,0,0,412,343.83a5.84,5.84,0,0,0,.73,1.7,6.861,6.861,0,0,1-2.722,8.752" transform="translate(-366.697 -326.547)" fill="#2f2e41"/>
        <path id="Path_455" data-name="Path 455" d="M451.966,416.533l2.961-2.4s5.975-.415,5.867,5.919l9.561,29.907,18.342,6.5-2.471,12.769-25.951-9.886L447.092,437.5Z" transform="translate(-397.804 -376.371)" fill="#2f2e41"/>
        <path id="Path_554" data-name="Path 554" d="M137.257,738.308H45.288v-.638h92.085Z" transform="translate(-45.288 -525.732)" fill="#3f3d56"/>
      </g>
    </g>
    <path id="Path_801" data-name="Path 801" d="M787.54,231.361a1.62,1.62,0,1,0,0-3.24H711.159a1.62,1.62,0,0,0,0,3.24Z" transform="translate(-516.548 26.296)" fill="#e6e6e6"/>
  </g>
</svg>
