<svg xmlns="http://www.w3.org/2000/svg" width="239.612" height="217.303" viewBox="0 0 239.612 217.303">
  <g id="Pay_Slip_illustration_girl_" data-name="Pay Slip illustration girl " transform="translate(-2258 42)">
    <path id="Path_376" data-name="Path 376" d="M436.835,789.637H224.311a.319.319,0,0,1,0-.637H436.835a.319.319,0,1,1,0,.637Z" transform="translate(2034.008 -614.334)" fill="#3f3d56"/>
    <path id="Path_377" data-name="Path 377" d="M62.648,637.678h3.906l1.858-15.067H62.647Z" transform="translate(2215.314 -466.231)" fill="#ffb6b6"/>
    <path id="Path_378" data-name="Path 378" d="M283.514,774.9h7.693a4.9,4.9,0,0,1,4.9,4.9v.16h-12.6Z" transform="translate(1993.451 -604.723)" fill="#2f2e41"/>
    <path id="Path_379" data-name="Path 379" d="M175.648,637.678h3.906l1.858-15.067h-5.765Z" transform="translate(2138.319 -466.231)" fill="#ffb6b6"/>
    <path id="Path_380" data-name="Path 380" d="M396.514,774.9h7.693a4.9,4.9,0,0,1,4.9,4.9v.16h-12.6Z" transform="translate(1916.456 -604.723)" fill="#2f2e41"/>
    <g id="Group_342" data-name="Group 342" transform="translate(2260.272 -42)">
      <path id="Path_367" data-name="Path 367" d="M778.768,358.428c-.506.348-1,.7-1.5,1.064a130.661,130.661,0,0,0-7.172,42.929q0,2.535.11,5.056a126.874,126.874,0,0,0,7.135,36.966q.333.94.677,1.871c.165.446.332.9.512,1.337l.534.659c.012.009.023.026.036.035.071.088.143.176.207.263.306.374.616.745.922,1.119l-.242.028-.607.066,0,0c.2-.013.412-.03.618-.05.075,0,.157-.005.233-.015l.208-.016c8.765-.637,17.726-1.483,25.548-5.435,8.188-4.14,14.908-12.59,14.132-21.729a16.446,16.446,0,0,0-.7-3.524c-.151-.478-.326-.947-.511-1.414a17.319,17.319,0,0,0-29.929-4.083c1.967-9.523,12.032-14.795,21.162-18.137s19.426-6.868,23.776-15.566a18.713,18.713,0,0,0,.287-15.343c-.059-.149-.122-.3-.188-.454a25.271,25.271,0,0,0-12.8-13.266c-10.831-4.763-23.618-2.327-34.258,2.848A62.64,62.64,0,0,0,778.768,358.428Z" transform="translate(-598.367 -272.011)" fill="#f2f2f2"/>
      <path id="Path_368" data-name="Path 368" d="M828.844,566.361a38.993,38.993,0,0,0-21.97,10.785,39.9,39.9,0,0,0-10.525,18.3c-.105.4-.2.792-.287,1.189-.229-.391-.452-.791-.672-1.187-.142-.254-.286-.512-.424-.768.165.446.332.9.512,1.337l.534.659c.012.009.023.026.036.035.071.088.143.176.207.263.306.374.616.745.922,1.119l-.242.028-.607.066,0,0c.2-.013.412-.03.618-.05.075,0,.156-.005.233-.015.02-.12.046-.238.073-.357a37.676,37.676,0,0,1,39.111-30.346c-.151-.478-.326-.947-.511-1.414A40.31,40.31,0,0,0,828.844,566.361Z" transform="translate(-615.311 -420.372)" fill="#fff"/>
      <path id="Path_369" data-name="Path 369" d="M782.655,417.978a42.9,42.9,0,0,0-8.375,9.237,35.6,35.6,0,0,0-3.094,5.847c-.4.947-.764,1.92-1.085,2.9q0,2.535.11,5.056a36.764,36.764,0,0,1,.96-3.806c.2-.686.426-1.36.668-2.027,2.719-7.472,7.987-13.513,14.31-18.211A93.1,93.1,0,0,1,808.51,405.06a105.594,105.594,0,0,1,25.037-6.192.757.757,0,0,0,.659-.813.652.652,0,0,0-.188-.454.541.541,0,0,0-.471-.126c-1.057.128-2.112.26-3.165.42a106.846,106.846,0,0,0-25.5,7.121A85.965,85.965,0,0,0,782.655,417.978Z" transform="translate(-598.368 -305.552)" fill="#fff"/>
      <circle id="Ellipse_44" data-name="Ellipse 44" cx="2.946" cy="2.946" r="2.946" transform="translate(222.984 63.999)" fill="#f2f2f2"/>
      <path id="Path_370" data-name="Path 370" d="M568.882,325.666H496.26a16.44,16.44,0,0,1-16.422-16.422V125.422A16.44,16.44,0,0,1,496.26,109h72.622A16.44,16.44,0,0,1,585.3,125.422V309.244A16.44,16.44,0,0,1,568.882,325.666Z" transform="translate(-400.591 -109)" fill="#3f3d56"/>
      <path id="Path_371" data-name="Path 371" d="M577.609,125h-8.084a2.724,2.724,0,0,0-2.721,2.721,5.568,5.568,0,0,1-5.563,5.563H521.705a5.568,5.568,0,0,1-5.563-5.563A2.724,2.724,0,0,0,513.421,125h-7.128a12.471,12.471,0,0,0-12.455,12.455V319.971a12.471,12.471,0,0,0,12.455,12.455h71.315a12.471,12.471,0,0,0,12.455-12.455V137.455A12.471,12.471,0,0,0,577.608,125Z" transform="translate(-410.13 -119.902)" fill="#fcfcfc"/>
      <path id="Path_372" data-name="Path 372" d="M625.189,133.093h-22.3a.8.8,0,1,1,0-1.593h22.3a.8.8,0,1,1,0,1.593Z" transform="translate(-483.889 -124.331)" fill="#fff"/>
      <circle id="Ellipse_45" data-name="Ellipse 45" cx="0.637" cy="0.637" r="0.637" transform="translate(144.167 7.328)" fill="#fff"/>
      <path id="Path_373" data-name="Path 373" d="M809.773,270.407a1.436,1.436,0,0,1-1.434-1.434V240.934a1.434,1.434,0,1,1,2.868,0v28.039A1.435,1.435,0,0,1,809.773,270.407Z" transform="translate(-624.422 -197.919)" fill="#3f3d56"/>
      <path id="Path_374" data-name="Path 374" d="M476.772,251.74a1.435,1.435,0,0,1-1.434-1.434v-6.373a1.434,1.434,0,0,1,2.868,0v6.373A1.435,1.435,0,0,1,476.772,251.74Z" transform="translate(-397.525 -199.963)" fill="#3f3d56"/>
      <path id="Path_375" data-name="Path 375" d="M476.772,288.74a1.435,1.435,0,0,1-1.434-1.434v-6.373a1.434,1.434,0,0,1,2.868,0v6.373a1.436,1.436,0,0,1-1.434,1.434Z" transform="translate(-397.525 -225.174)" fill="#3f3d56"/>
      <path id="Path_381" data-name="Path 381" d="M114.513,290l2.549,16.25-24.216.319,3.186-15.613Z" transform="translate(-65.535 -197.598)" fill="#ffb6b6"/>
      <path id="Path_382" data-name="Path 382" d="M319.183,437l6.054,20.711.956,85.106h-6.532l-15.613-68.378-14.338,66.593h-6.373l4.461-74.877s-2.23-18.48,5.417-23.9V437.5Z" transform="translate(-266.701 -332.49)" fill="#2f2e41"/>
      <path id="Path_383" data-name="Path 383" d="M273.759,398.516a4.78,4.78,0,0,0,3.063-6.659l10.3-33.586-7.577-1.5-9.422,32.921a4.806,4.806,0,0,0,3.635,8.826Z" transform="translate(-256.017 -277.823)" fill="#ffb6b6"/>
      <circle id="Ellipse_46" data-name="Ellipse 46" cx="10.929" cy="10.929" r="10.929" transform="translate(23.3 51.16) rotate(-45)" fill="#ffb6b6"/>
      <path id="Path_384" data-name="Path 384" d="M316.316,350.748a2,2,0,0,1-1.6-1.814c-.24-3.291-1.429-9.01-3.533-17a13.243,13.243,0,0,1,10.932-16.473h0a13.237,13.237,0,0,1,15.046,11.579c1.041,9.167-.923,18.377-1.815,21.911a2.007,2.007,0,0,1-1.9,1.512l-16.692.322A1.992,1.992,0,0,1,316.316,350.748Z" transform="translate(-285.375 -249.585)" fill="#e4e4e4"/>
      <path id="Path_385" data-name="Path 385" d="M408.882,328.716a4.687,4.687,0,0,0-.246.7l-20.894,7.1-4.037-3.527-6.119,5.4,6.541,6.939a3.56,3.56,0,0,0,4.21.728l22.358-11.42a4.671,4.671,0,1,0-1.811-5.912Z" transform="translate(-330.918 -256.841)" fill="#ffb6b6"/>
      <path id="Path_386" data-name="Path 386" d="M369.9,335.743l-7.617,6.653a2,2,0,0,1-3-.426l-5.448-8.484a5.561,5.561,0,1,1,8.4-7.292l7.651,6.517a2,2,0,0,1,.018,3.032Z" transform="translate(-313.809 -255.685)" fill="#e4e4e4"/>
      <path id="Path_387" data-name="Path 387" d="M302.126,348.235l-9.413-3.7a2,2,0,0,1-1-2.861l5.022-8.743a5.561,5.561,0,1,1,10.34,4.1l-2.262,9.792a2,2,0,0,1-2.683,1.412Z" transform="translate(-272.223 -259.188)" fill="#e4e4e4"/>
      <path id="Path_388" data-name="Path 388" d="M274.932,229.42c2.382,2.432,5.615,5.088,8.827,3.637a5.221,5.221,0,0,0,2.851-5.57c-.584-4.121-3.95-6.551-7.232-8.553-4.267-2.6-9.012-4.941-14-4.672s-10.1,4.037-10.2,9.034c-.08,4.019,2.942,7.975,1.647,11.78-1.3,3.83-6.137,5.024-10.182,4.952s-8.46-.712-11.823,1.537c-4.29,2.869-4.664,9.442-2.044,13.889s7.365,7.167,12.06,9.308c6.222,2.837,13.121,5.047,19.827,3.715s12.9-7.266,12.382-14.085c-.217-2.88-1.547-5.541-2.829-8.129s-2.565-5.283-2.678-8.169a7.789,7.789,0,0,1,2.705-6.411,1.974,1.974,0,0,0,.708-2.212Z" transform="translate(-231.123 -180.708)" fill="#2f2e41"/>
      <text id="Salary" transform="translate(106.048 48.588)" fill="#505b7b" font-size="19" font-family="ArialRoundedMT, Arial Rounded MT"><tspan x="0" y="0">Salary</tspan></text>
      <g id="Group_309" data-name="Group 309" transform="translate(95.876 58.938)">
        <g id="Group_307" data-name="Group 307" transform="translate(0)">
          <g id="Group_305" data-name="Group 305">
            <path id="Path_389" data-name="Path 389" d="M-2731.971-1009.161h-12.563a4.472,4.472,0,0,1-4.467-4.467v-11.911a4.472,4.472,0,0,1,4.467-4.467h12.563a4.472,4.472,0,0,1,4.467,4.467v11.911A4.472,4.472,0,0,1-2731.971-1009.161Zm-12.563-18.829a2.452,2.452,0,0,0-2.45,2.45v11.911a2.452,2.452,0,0,0,2.45,2.45h12.563a2.452,2.452,0,0,0,2.45-2.45v-11.911a2.452,2.452,0,0,0-2.45-2.45Z" transform="translate(2749.001 1030.007)" fill="#005296"/>
          </g>
          <g id="Group_306" data-name="Group 306" transform="translate(10.749 2.694)">
            <path id="Path_390" data-name="Path 390" d="M-2707.117-1021.48l-9.934,9.093a1.008,1.008,0,0,1-.738.265c-.015,0-.032,0-.046-.006a1.009,1.009,0,0,1-.657-.34l-3.234-3.7a1.006,1.006,0,0,1,.1-1.424,1.011,1.011,0,0,1,1.424.1l2.556,2.928,9.171-8.4a1.011,1.011,0,0,1,1.427.06A1.011,1.011,0,0,1-2707.117-1021.48Z" transform="translate(2721.977 1023.233)" fill="#fad066"/>
          </g>
        </g>
        <g id="Group_308" data-name="Group 308" transform="translate(27.178 2.744)">
          <path id="Path_391" data-name="Path 391" d="M-2645.714-1022.028a1.134,1.134,0,0,1-1.181,1.081h-32.593a1.134,1.134,0,0,1-1.181-1.081h0a1.134,1.134,0,0,1,1.181-1.081h32.593a1.134,1.134,0,0,1,1.181,1.081Z" transform="translate(2680.669 1023.109)" fill="#005296"/>
          <path id="Path_392" data-name="Path 392" d="M-2631.88-992.8c0,.6-.738,1.081-1.648,1.081h-45.492c-.91,0-1.648-.484-1.648-1.081h0c0-.6.738-1.081,1.648-1.081h45.492c.91,0,1.648.484,1.648,1.081Z" transform="translate(2680.669 1005.508)" fill="#005296"/>
          <path id="Path_393" data-name="Path 393" d="M-2668.123-1008.237c0,.6-.195,1.08-.429,1.079l-11.7-.055c-.234,0-.422-.486-.419-1.083h0c0-.6.195-1.08.429-1.079l11.7.055c.234,0,.422.486.418,1.083Z" transform="translate(2680.669 1014.838)" fill="#005296"/>
          <path id="Path_394" data-name="Path 394" d="M-2627.908-1008.237c0,.6-.195,1.08-.429,1.079l-11.7-.055c-.234,0-.422-.486-.419-1.083h0c0-.6.2-1.08.429-1.079l11.7.055c.234,0,.422.486.419,1.083Z" transform="translate(2656.449 1014.838)" fill="#005296"/>
          <path id="Path_395" data-name="Path 395" d="M-2586.122-1008.237c0,.6-.195,1.08-.429,1.079l-11.7-.055c-.234,0-.421-.486-.418-1.083h0c0-.6.195-1.08.429-1.079l11.7.055c.234,0,.421.486.418,1.083Z" transform="translate(2631.283 1014.838)" fill="#005296"/>
        </g>
      </g>
      <g id="Group_314" data-name="Group 314" transform="translate(95.876 84.5)">
        <g id="Group_312" data-name="Group 312" transform="translate(0 0)">
          <g id="Group_310" data-name="Group 310">
            <path id="Path_396" data-name="Path 396" d="M-2731.971-944.893h-12.563A4.472,4.472,0,0,1-2749-949.36v-11.911a4.472,4.472,0,0,1,4.467-4.467h12.563a4.472,4.472,0,0,1,4.467,4.467v11.911A4.472,4.472,0,0,1-2731.971-944.893Zm-12.563-18.829a2.453,2.453,0,0,0-2.45,2.45v11.911a2.452,2.452,0,0,0,2.45,2.45h12.563a2.452,2.452,0,0,0,2.45-2.45v-11.911a2.453,2.453,0,0,0-2.45-2.45Z" transform="translate(2749.001 965.739)" fill="#005296"/>
          </g>
          <g id="Group_311" data-name="Group 311" transform="translate(10.749 2.694)">
            <path id="Path_397" data-name="Path 397" d="M-2707.117-957.212l-9.934,9.093a1.009,1.009,0,0,1-.738.265c-.015,0-.032,0-.046-.006a1.013,1.013,0,0,1-.657-.34l-3.234-3.7a1,1,0,0,1,.1-1.423,1.011,1.011,0,0,1,1.424.095l2.556,2.928,9.171-8.4a1.011,1.011,0,0,1,1.427.06A1.011,1.011,0,0,1-2707.117-957.212Z" transform="translate(2721.977 958.965)" fill="#fad066"/>
          </g>
        </g>
        <g id="Group_313" data-name="Group 313" transform="translate(27.178 2.744)">
          <path id="Path_398" data-name="Path 398" d="M-2645.714-957.76a1.134,1.134,0,0,1-1.181,1.081h-32.593a1.135,1.135,0,0,1-1.181-1.081h0a1.135,1.135,0,0,1,1.181-1.081h32.593a1.134,1.134,0,0,1,1.181,1.081Z" transform="translate(2680.669 958.841)" fill="#005296"/>
          <path id="Path_399" data-name="Path 399" d="M-2631.88-928.534c0,.6-.738,1.081-1.648,1.081h-45.492c-.91,0-1.648-.484-1.648-1.081h0c0-.6.738-1.081,1.648-1.081h45.492c.91,0,1.648.484,1.648,1.081Z" transform="translate(2680.669 941.239)" fill="#005296"/>
          <path id="Path_400" data-name="Path 400" d="M-2668.123-943.968c0,.6-.195,1.08-.429,1.079l-11.7-.055c-.234,0-.422-.486-.419-1.083h0c0-.6.195-1.08.429-1.079l11.7.055c.234,0,.422.486.418,1.083Z" transform="translate(2680.669 950.569)" fill="#005296"/>
          <path id="Path_401" data-name="Path 401" d="M-2627.908-943.968c0,.6-.195,1.08-.429,1.079l-11.7-.055c-.234,0-.422-.486-.419-1.083h0c0-.6.2-1.08.429-1.079l11.7.055c.234,0,.422.486.419,1.083Z" transform="translate(2656.449 950.569)" fill="#005296"/>
          <path id="Path_402" data-name="Path 402" d="M-2586.122-943.968c0,.6-.195,1.08-.429,1.079l-11.7-.055c-.234,0-.421-.486-.418-1.083h0c0-.6.195-1.08.429-1.079l11.7.055c.234,0,.421.486.418,1.083Z" transform="translate(2631.283 950.569)" fill="#005296"/>
        </g>
      </g>
      <g id="Group_319" data-name="Group 319" transform="translate(95.876 110.516)">
        <g id="Group_317" data-name="Group 317" transform="translate(0)">
          <g id="Group_315" data-name="Group 315">
            <path id="Path_403" data-name="Path 403" d="M-2731.971-879.482h-12.563a4.472,4.472,0,0,1-4.467-4.467v-11.911a4.472,4.472,0,0,1,4.467-4.467h12.563a4.472,4.472,0,0,1,4.467,4.467v11.911A4.472,4.472,0,0,1-2731.971-879.482Zm-12.563-18.828a2.453,2.453,0,0,0-2.45,2.45v11.911a2.452,2.452,0,0,0,2.45,2.45h12.563a2.452,2.452,0,0,0,2.45-2.45v-11.911a2.453,2.453,0,0,0-2.45-2.45Z" transform="translate(2749.001 900.328)" fill="#005296"/>
          </g>
          <g id="Group_316" data-name="Group 316" transform="translate(10.749 2.694)">
            <path id="Path_404" data-name="Path 404" d="M-2707.117-891.8l-9.934,9.093a1.008,1.008,0,0,1-.738.265c-.015,0-.032,0-.046-.005a1.012,1.012,0,0,1-.657-.34l-3.234-3.7a1.006,1.006,0,0,1,.1-1.424,1.011,1.011,0,0,1,1.424.1l2.556,2.928,9.171-8.4a1.011,1.011,0,0,1,1.427.061A1.011,1.011,0,0,1-2707.117-891.8Z" transform="translate(2721.977 893.554)" fill="#fad066"/>
          </g>
        </g>
        <g id="Group_318" data-name="Group 318" transform="translate(27.178 2.744)">
          <path id="Path_405" data-name="Path 405" d="M-2645.714-892.349a1.134,1.134,0,0,1-1.181,1.081h-32.593a1.135,1.135,0,0,1-1.181-1.081h0a1.135,1.135,0,0,1,1.181-1.081h32.593a1.134,1.134,0,0,1,1.181,1.081Z" transform="translate(2680.669 893.43)" fill="#005296"/>
          <path id="Path_406" data-name="Path 406" d="M-2631.88-863.123c0,.6-.738,1.081-1.648,1.081h-45.492c-.91,0-1.648-.484-1.648-1.081h0c0-.6.738-1.081,1.648-1.081h45.492c.91,0,1.648.484,1.648,1.081Z" transform="translate(2680.669 875.828)" fill="#005296"/>
          <path id="Path_407" data-name="Path 407" d="M-2668.123-878.557c0,.6-.195,1.08-.429,1.079l-11.7-.055c-.234,0-.422-.486-.419-1.083h0c0-.6.195-1.08.429-1.079l11.7.055c.234,0,.422.486.418,1.083Z" transform="translate(2680.669 885.158)" fill="#005296"/>
          <path id="Path_408" data-name="Path 408" d="M-2627.908-878.557c0,.6-.195,1.08-.429,1.079l-11.7-.055c-.234,0-.422-.486-.419-1.083h0c0-.6.2-1.08.429-1.079l11.7.055c.234,0,.422.486.419,1.083Z" transform="translate(2656.449 885.158)" fill="#005296"/>
          <path id="Path_409" data-name="Path 409" d="M-2586.122-878.557c0,.6-.195,1.08-.429,1.079l-11.7-.055c-.234,0-.421-.486-.418-1.083h0c0-.6.195-1.08.429-1.079l11.7.055c.234,0,.421.486.418,1.083Z" transform="translate(2631.283 885.158)" fill="#005296"/>
        </g>
      </g>
      <path id="Path_434" data-name="Path 434" d="M379.033,456.6h-68.4a6.059,6.059,0,0,0-6.059,6.059v33.325a6.059,6.059,0,0,0,6.059,6.059h68.4a6.059,6.059,0,0,0,6.059-6.059V462.66a6.059,6.059,0,0,0-6.059-6.059Zm-70.091,4.133a8.361,8.361,0,0,1,9.7,5.838l.107.333-.344.061a9.141,9.141,0,0,1-1.484.109,8.838,8.838,0,0,1-4.506-1.136,9.571,9.571,0,0,1-3.713-4.811l-.107-.333Zm14.848,30.94h-12.2a3.355,3.355,0,0,1,0-6.71h12.2a3.355,3.355,0,0,1,0,6.71Zm55.508-.61a3.671,3.671,0,0,1-3.66,3.66h-9.149a3.671,3.671,0,0,1-3.66-3.66v-5.49a3.671,3.671,0,0,1,3.66-3.66h9.15a3.671,3.671,0,0,1,3.66,3.66Z" transform="translate(-212.968 -313.983)" fill="#005296"/>
      <g id="Group_322" data-name="Group 322" transform="translate(151.799 170.415)">
        <path id="Path_413" data-name="Path 413" d="M498.159,561.213H494.48a.99.99,0,0,0,0,1.981h3.679a.99.99,0,0,0,0-1.981Z" transform="translate(-493.489 -555.678)" fill="#3f3d56"/>
        <path id="Path_414" data-name="Path 414" d="M519.474,561.213h-3.679a.99.99,0,0,0,0,1.981h3.679a.99.99,0,0,0,0-1.981Z" transform="translate(-508.012 -555.678)" fill="#3f3d56"/>
        <path id="Path_415" data-name="Path 415" d="M498.157,552.438h-3.679a.99.99,0,1,0,0,1.981h3.679a.99.99,0,1,0,0-1.981Z" transform="translate(-493.487 -549.699)" fill="#3f3d56"/>
        <path id="Path_416" data-name="Path 416" d="M519.472,552.438h-3.679a.99.99,0,0,0,0,1.981h3.679a.99.99,0,0,0,0-1.981Z" transform="translate(-508.011 -549.699)" fill="#3f3d56"/>
        <path id="Path_417" data-name="Path 417" d="M498.157,543.841h-3.679a.99.99,0,0,0,0,1.981h3.679a.99.99,0,0,0,0-1.981Z" transform="translate(-493.487 -543.841)" fill="#3f3d56"/>
        <path id="Path_418" data-name="Path 418" d="M519.472,543.841h-3.679a.99.99,0,0,0,0,1.981h3.679a.99.99,0,0,0,0-1.981Z" transform="translate(-508.011 -543.841)" fill="#3f3d56"/>
      </g>
      <g id="Group_341" data-name="Group 341" transform="translate(169.834 153.091)">
        <g id="Group_338" data-name="Group 338" transform="translate(0 38.651)">
          <path id="Path_510" data-name="Path 510" d="M-1595.083-443.723h-5.787v-8.292h5.782Q-1595.084-447.871-1595.083-443.723Z" transform="translate(1611.307 452.108)" fill="#f6c153"/>
          <path id="Path_511" data-name="Path 511" d="M-1552.91-452.016h5.783q0,4.146,0,8.293h-5.787Q-1552.911-447.87-1552.91-452.016Z" transform="translate(1574.932 452.109)" fill="#f6c153"/>
          <path id="Path_512" data-name="Path 512" d="M-1571.131-443.728q-2.9,0-5.794,0,0-4.145,0-8.292,2.9,0,5.8,0Q-1571.133-447.877-1571.131-443.728Z" transform="translate(1593.15 452.115)" fill="#faa337"/>
          <path id="Path_513" data-name="Path 513" d="M-1528.949-443.728q0-4.147,0-8.293h5.562q0,4.148,0,8.3Z" transform="translate(1556.76 452.114)" fill="#faa337"/>
          <path id="Path_517" data-name="Path 517" d="M-1618.368-452.015v8.292h-5.572q0-4.145,0-8.292Z" transform="translate(1628.805 452.108)" fill="#faa337"/>
          <path id="Path_521" data-name="Path 521" d="M-1639.211-452.269q0,4.144,0,8.292c-.841.012-1.679.058-2.517.031a2.146,2.146,0,0,1-2.328-2.316c-.029-1.159-.022-2.318,0-3.481a2.272,2.272,0,0,1,2.464-2.594C-1640.811-452.382-1640.011-452.3-1639.211-452.269Z" transform="translate(1644.081 452.361)" fill="#f6c153"/>
          <path id="Path_523" data-name="Path 523" d="M-1501.093-448.1c-.133,3.848-.365,4.181-4.241,4.128-.2,0-.4-.027-.6-.039q0-1.663,0-3.326-.007-2.485-.01-4.971v-.015C-1502.117-452.618-1500.95-452.214-1501.093-448.1Z" transform="translate(1539.314 452.399)" fill="#f4c055"/>
        </g>
        <g id="Group_340" data-name="Group 340" transform="translate(0.003 55.31)">
          <path id="Path_508" data-name="Path 508" d="M-1576.914-367.442h5.795q0,4.152,0,8.3h-5.79Q-1576.911-363.289-1576.914-367.442Z" transform="translate(1593.134 367.479)" fill="#faa337"/>
          <path id="Path_509" data-name="Path 509" d="M-1529.891-367.434h5.794q0,4.15,0,8.3h-5.791Q-1529.891-363.283-1529.891-367.434Z" transform="translate(1557.469 367.473)" fill="#faa337"/>
          <path id="Path_514" data-name="Path 514" d="M-1595.08-367.442q0,4.153,0,8.306l-5.79,0q0-4.153,0-8.307Z" transform="translate(1611.3 367.479)" fill="#f4c055"/>
          <path id="Path_516" data-name="Path 516" d="M-1618.365-367.441q0,4.154,0,8.307l-5.558,0q-.008-4.156-.015-8.312Z" transform="translate(1628.802 367.479)" fill="#f7a43b"/>
          <path id="Path_518" data-name="Path 518" d="M-1547.361-367.436q0,4.151,0,8.3h-5.565q0-4.152,0-8.3Z" transform="translate(1574.939 367.475)" fill="#f6c153"/>
          <path id="Path_522" data-name="Path 522" d="M-1639.206-367.559l.015,8.312a29.482,29.482,0,0,1-3.093-.095,1.926,1.926,0,0,1-1.76-2.08c-.024-1.32-.038-2.641,0-3.96a2.123,2.123,0,0,1,2.2-2.2C-1640.967-367.621-1640.085-367.57-1639.206-367.559Z" transform="translate(1644.067 367.596)" fill="#f6c153"/>
          <path id="Path_524" data-name="Path 524" d="M-1505.911-359.247q0-4.151,0-8.3c.8-.012,1.607-.053,2.409-.03a2.2,2.2,0,0,1,2.389,2.306c.055,1.163.034,2.331.013,3.5a2.342,2.342,0,0,1-2.41,2.588C-1504.3-359.136-1505.109-359.223-1505.911-359.247Z" transform="translate(1539.281 367.588)" fill="#f6c153"/>
        </g>
        <g id="Group_339" data-name="Group 339" transform="translate(0.002 47.046)">
          <path id="Path_515" data-name="Path 515" d="M-1524.088-409.566v8.222l-5.79,0q0-4.105,0-8.212Z" transform="translate(1557.461 409.604)" fill="#fba436"/>
          <rect id="Rectangle_224" data-name="Rectangle 224" width="5.797" height="8.224" transform="translate(16.222 0.039)" fill="#fba436"/>
          <rect id="Rectangle_225" data-name="Rectangle 225" width="5.79" height="8.224" transform="translate(10.432 0.039)" fill="#f6c153"/>
          <path id="Path_519" data-name="Path 519" d="M-1547.345-401.346l-5.565,0v-8.225l5.563.008Q-1547.348-405.454-1547.345-401.346Z" transform="translate(1574.929 409.604)" fill="#f6c153"/>
          <path id="Path_520" data-name="Path 520" d="M-1618.385-409.566v8.225q-2.79,0-5.575,0,0-4.116,0-8.227Z" transform="translate(1628.818 409.604)" fill="#fba436"/>
          <path id="Path_525" data-name="Path 525" d="M-1639.211-409.659q0,4.112,0,8.227c-.964,0-1.93.053-2.891,0a1.979,1.979,0,0,1-1.925-1.942c-.056-1.444-.056-2.9,0-4.338a1.976,1.976,0,0,1,1.925-1.945C-1641.144-409.722-1640.175-409.664-1639.211-409.659Z" transform="translate(1644.071 409.698)" fill="#f6c153"/>
          <path id="Path_526" data-name="Path 526" d="M-1501.1-403.834a2.22,2.22,0,0,1-2.4,2.4c-.8.024-1.6-.017-2.4-.031v-8.222c.8-.012,1.6-.055,2.4-.031a2.219,2.219,0,0,1,2.4,2.4C-1501.052-406.158-1501.052-404.994-1501.1-403.834Z" transform="translate(1539.273 409.725)" fill="#f6c153"/>
        </g>
        <g id="Group_337" data-name="Group 337" transform="translate(0.012)">
          <path id="Path_507" data-name="Path 507" d="M-1624.966-617.7a19.031,19.031,0,0,0-19.065,19.089,19.122,19.122,0,0,0,19.253,19.069,19.176,19.176,0,0,0,18.919-19.072A19.108,19.108,0,0,0-1624.966-617.7Zm-.1,34.284a15.144,15.144,0,0,1-15.067-15.21,15.152,15.152,0,0,1,15.427-15.2,15.209,15.209,0,0,1,14.963,15.311A15.043,15.043,0,0,1-1625.07-583.412Z" transform="translate(1644.03 617.696)" fill="#f6c153"/>
          <path id="Path_527" data-name="Path 527" d="M-1608.326-546.115a2.633,2.633,0,0,1-2.295,2.353,2.247,2.247,0,0,1-2.3-2.5,2.241,2.241,0,0,1,2.222-2.3A2.264,2.264,0,0,1-1608.326-546.115Z" transform="translate(1620.434 565.257)" fill="#f6c153"/>
          <path id="Path_528" data-name="Path 528" d="M-1531.329-546.408a2.662,2.662,0,0,1-2.28,2.645,2.5,2.5,0,0,1-2.312-2.355,2.266,2.266,0,0,1,2.442-2.44A2.241,2.241,0,0,1-1531.329-546.408Z" transform="translate(1562.033 565.257)" fill="#f6c153"/>
          <path id="Path_529" data-name="Path 529" d="M-1612.493-601.68a15.151,15.151,0,0,0-15.427,15.2,15.143,15.143,0,0,0,15.067,15.21,15.044,15.044,0,0,0,15.323-15.1A15.209,15.209,0,0,0-1612.493-601.68ZM-1622-584.056a2.247,2.247,0,0,1-2.3-2.5,2.241,2.241,0,0,1,2.222-2.3,2.264,2.264,0,0,1,2.372,2.442A2.633,2.633,0,0,1-1622-584.056Zm18.61,0a2.5,2.5,0,0,1-2.312-2.355,2.266,2.266,0,0,1,2.442-2.44,2.241,2.241,0,0,1,2.15,2.15A2.663,2.663,0,0,1-1603.389-584.056Z" transform="translate(1631.813 605.55)" fill="#faa337"/>
          <text id="_" data-name="$" transform="translate(14.308 20.332)" fill="#f6c153" font-size="13" font-family="ArialRoundedMT-ExtraBold, Arial Rounded MT" font-weight="800"><tspan x="0" y="0">$</tspan></text>
        </g>
      </g>
    </g>
  </g>
</svg>
