<svg xmlns="http://www.w3.org/2000/svg" width="360" height="640" viewBox="0 0 360 640">
  <g id="Pay_slip_screen_BG_shape_3" data-name="Pay slip  screen BG shape 3" transform="translate(1090.254 -132.74)">
    <path id="Path_809" data-name="Path 809" d="M-1059.9,296.473c-6.542-13.082-17.3-23.236-30.352-30.447V420.588c3.054-4.6,6.093-9.186,9.037-13.768C-1059.709,373.342-1042.23,331.81-1059.9,296.473Z" fill="#e5edf7"/>
    <path id="Path_810" data-name="Path 810" d="M-730.254,706.38v66.36h-82.69c9.12-14.31,17.89-28.84,31.2-39.86C-767.514,721.09-748.7,713.68-730.254,706.38Z" fill="#e5edf7"/>
    <path id="Path_811" data-name="Path 811" d="M-730.254,556.535V426.911C-751.871,438.983-770.6,452.846-775.8,474.9-783.253,506.51-757.533,534.259-730.254,556.535Z" fill="#e4e9ed"/>
    <path id="Path_812" data-name="Path 812" d="M-1041.944,772.72h-12.27c-.56,0-1.12-.01-1.67-.03v.05h-34.37V609.44c21.93,30.92,45.41,61.75,50,97.3C-1037.494,728.06-1041.424,751-1041.944,772.72Z" fill="#e4e9ed"/>
    <path id="Path_813" data-name="Path 813" d="M-730.254,132.74v77.59c-13.69-9.86-26.4-20.49-36.2-33.13-11.28-14.56-19.03-32.13-32.63-44.42h29.62l-.04-.04Z" fill="#e5edf7"/>
    <path id="Path_814" data-name="Path 814" d="M-915.324,132.78c-31.23,14.01-60.31,34.59-90.13,51.54-25.25,14.35-55.44,26.02-84.8,29.16V132.74h35v.05c.17-.01.34-.01.51-.01Z" fill="#e4e9ed"/>
  </g>
</svg>
