<?xml version="1.0" encoding="utf-8"?>
<svg viewBox="0 0 500 450" xmlns="http://www.w3.org/2000/svg">
    <g id="Welcome_illustration_man_1" data-name="Welcome illustration man 1" transform="matrix(1.729353, 0, 0, 1.955441, -51.014431, -201.271881)" style="">
        <g id="Group_433" data-name="Group 433" transform="translate(55.12 158.157)">
            <g id="Group_432" data-name="Group 432" transform="translate(21.495 26.127)">
                <rect id="Rectangle_234" data-name="Rectangle 234" width="195.455" height="127.899" rx="16.908" fill="#005296" />
                <path id="Path_624" data-name="Path 624" d="M1224.323,178.994v103.05c0,.114,0,.223-.01.331a7.464,7.464,0,0,1-7.461,7.139H1047.262a7.467,7.467,0,0,1-7.47-7.47V178.994a7.47,7.47,0,0,1,7.47-7.47h169.591A7.47,7.47,0,0,1,1224.323,178.994Z" transform="translate(-1034.33 -166.571)" fill="#efecea" />
                <path id="Path_625" data-name="Path 625" d="M1224.314,302.02a7.464,7.464,0,0,1-7.461,7.139H1047.262a7.467,7.467,0,0,1-7.47-7.47v-82.84c10.8-7.707,26.724-13.927,46.625-7.058C1121.013,223.738,1145.89,299.757,1224.314,302.02Z" transform="translate(-1034.33 -186.215)" fill="#fff" />
                <path id="Path_660" data-name="Path 660" d="M1060.9,256.421a16.482,16.482,0,1,1,18.247,16.387,3.279,3.279,0,0,0,1.458,2.546.384.384,0,0,1-.163.7,6.1,6.1,0,0,1-3.657-.594,5.324,5.324,0,0,1-2.529-2.857A16.485,16.485,0,0,1,1060.9,256.421Z" transform="translate(-1045.446 -202.598)" fill="#f2d91f" />
            </g>
            <path id="Path_627" data-name="Path 627" d="M982.849,449.889v2.537c0,1.724,1.069,3.121,2.387,3.121h233.67c1.318,0,2.388-1.4,2.388-3.121v-2.537Z" transform="translate(-982.849 -287.031)" fill="#005296" />
            <path id="Path_626" data-name="Path 626" d="M982.849,431.231V442.6c0,1.724,1.069,3.121,2.387,3.121h233.67c1.318,0,2.388-1.4,2.388-3.121v-11.37Z" transform="translate(-982.849 -277.206)" fill="#0065aa" />
            <path id="Path_628" data-name="Path 628" d="M1166.353,264.884s-22.683,17.814-25.771,41.923h28.463Z" transform="translate(-1079.466 -199.839)" fill="#005296" />
            <path id="Path_629" data-name="Path 629" d="M1190.825,338.071c.829-5.179.761-17.819.347-31.764-.727-24.193-2.508-52.321-2.508-52.321a63.9,63.9,0,0,1,36.195-12.593l.224,96.677Z" transform="translate(-1101.776 -188.939)" fill="#005296" />
            <path id="Path_630" data-name="Path 630" d="M1209.166,262.151l-3.676,4.39s-.591,26.232-14.176,41.76q-.092-2.967-.2-5.987c-.645-18.1-1.74-36.908-2.147-43.7,1.943-1.848,3.16-2.875,3.16-2.875s.048.02.136.048a17.824,17.824,0,0,1,.231-2.426,62.274,62.274,0,0,1,17.329-7.672,18.642,18.642,0,0,1,1.284,3.493A16.8,16.8,0,0,1,1209.166,262.151Z" transform="translate(-1101.917 -190.934)" />
            <path id="Path_631" data-name="Path 631" d="M1290.393,338.07c-2.258-14.162,2.165-84.083,2.165-84.083-16.626-12.826-36.195-12.588-36.195-12.588l-.225,96.672Z" transform="translate(-1133.084 -188.941)" fill="#005296" />
            <path id="Path_632" data-name="Path 632" d="M1254.762,241.55l-6.237-3.761v-.158l-.13.079-.131-.079v.158l-6.236,3.761-2.851,94.771h18.437Z" transform="translate(-1125.214 -187.193)" fill="#fdf7f4" />
            <path id="Path_633" data-name="Path 633" d="M1227.144,180.682l-2.733-1.948v-9.569l4.434.792Z" transform="translate(-1118.362 -155.425)" />
            <g id="Group_411" data-name="Group 411" transform="translate(129.107 54.032)">
                <path id="Path_634" data-name="Path 634" d="M1269.8,308.171c-.137,0-.21-.024-.257-.335h-.034c0-.033,0-.092.012-.176-.036-.383-.057-1.049-.095-2.209-.048-1.531-.115-3.719-.195-6.345-.159-5.251-.369-12.252-.577-19.253-.417-14-.831-28.005-.831-28.005a.325.325,0,0,1,.649-.019c.013.468,1.176,39.806,1.561,52.259,1.195-7.819,4.041-25.239,4.427-27.6l-3.784-2.087a.325.325,0,0,1,.032-.584l3.783-1.579c-.019-1.934-.395-16.549-7.009-27.405a.325.325,0,0,1,.555-.338c7.158,11.749,7.107,27.8,7.1,27.962a.325.325,0,0,1-.2.3l-3.363,1.4,3.395,1.872a.325.325,0,0,1,.164.337c-1.385,8.466-4.981,30.621-4.981,31.468a.338.338,0,0,1-.321.339Z" transform="translate(-1267.431 -244.336)" />
            </g>
            <g id="Group_412" data-name="Group 412" transform="translate(109.603 54.032)">
                <path id="Path_635" data-name="Path 635" d="M1236.387,308.171h-.038a.338.338,0,0,1-.32-.339c0-.846-3.6-23-4.982-31.468a.325.325,0,0,1,.164-.337l3.395-1.872-3.363-1.4a.326.326,0,0,1-.2-.3c0-.161-.053-16.213,7.106-27.962a.325.325,0,1,1,.555.338c-6.615,10.857-6.99,25.471-7.01,27.405l3.784,1.579a.325.325,0,0,1,.031.584l-3.783,2.087c.386,2.361,3.233,19.782,4.427,27.6.386-12.457,1.548-51.789,1.561-52.258a.311.311,0,0,1,.334-.315.325.325,0,0,1,.315.334s-.413,14-.831,28.005c-.208,7-.418,14-.578,19.253-.079,2.626-.146,4.814-.195,6.345-.037,1.159-.058,1.825-.095,2.208.009.083.013.142.013.174h-.035C1236.6,308.147,1236.524,308.171,1236.387,308.171Z" transform="translate(-1231.043 -244.336)" />
            </g>
            <rect id="Rectangle_235" data-name="Rectangle 235" width="12.22" height="19.927" transform="translate(116.979 38.923)" fill="#fdb797" />
            <path id="Path_636" data-name="Path 636" d="M1256.906,225.915s-1.369,3.725-5.251,3.725a5.733,5.733,0,0,1-5.189-3.726Z" transform="translate(-1128.597 -181.757)" fill="#050909" />
            <path id="Path_637" data-name="Path 637" d="M1235.92,147.853a12.946,12.946,0,0,1,13.288,0c11.079,6.689,9.6,27.5,8.048,33.142-1.078,3.91-6.061,6.538-9.928,8.027a13.266,13.266,0,0,1-9.528,0c-3.867-1.489-8.85-4.118-9.928-8.027C1226.315,175.354,1224.841,154.541,1235.92,147.853Z" transform="translate(-1119.472 -144.684)" fill="#fdb797" />
            <ellipse id="Ellipse_67" data-name="Ellipse 67" cx="4.074" cy="4.992" rx="4.074" ry="4.992" transform="translate(136.875 22.695)" fill="#fdb797" />
            <g id="Group_417" data-name="Group 417" transform="translate(114.886 19.167)">
                <path id="Path_638" data-name="Path 638" d="M1267.38,187.018a.974.974,0,0,1,0,1.948A.974.974,0,0,1,1267.38,187.018Z" transform="translate(-1252.75 -182.876)" />
                <g id="Group_413" data-name="Group 413" transform="translate(25.372 6.272)">
                    <path id="Path_639" data-name="Path 639" d="M1288.588,195.067a.325.325,0,0,1-.32-.278,3.557,3.557,0,0,1,2.4-3.784.325.325,0,0,1,.191.621,2.884,2.884,0,0,0-1.945,3.069.326.326,0,0,1-.275.368A.34.34,0,0,1,1288.588,195.067Z" transform="translate(-1288.236 -190.991)" />
                </g>
                <path id="Path_640" data-name="Path 640" d="M1244.02,187.018a.975.975,0,0,1,0,1.948A.975.975,0,0,1,1244.02,187.018Z" transform="translate(-1241.91 -182.876)" />
                <g id="Group_414" data-name="Group 414" transform="translate(0 0)">
                    <path id="Path_641" data-name="Path 641" d="M1241.224,180.986a.324.324,0,0,1-.23-.554,3.41,3.41,0,0,1,2.359-1.142,2.5,2.5,0,0,1,1.673.681.325.325,0,0,1-.466.452,1.862,1.862,0,0,0-1.223-.484h-.005a2.735,2.735,0,0,0-1.878.951A.324.324,0,0,1,1241.224,180.986Z" transform="translate(-1240.899 -179.29)" />
                </g>
                <g id="Group_415" data-name="Group 415" transform="translate(12.523 0)">
                    <path id="Path_642" data-name="Path 642" d="M1268.154,180.986a.325.325,0,0,1-.23-.095,2.734,2.734,0,0,0-1.878-.951h-.005a1.86,1.86,0,0,0-1.223.484.325.325,0,0,1-.467-.452,2.5,2.5,0,0,1,1.674-.681,3.357,3.357,0,0,1,2.358,1.142.324.324,0,0,1-.23.554Z" transform="translate(-1264.262 -179.29)" />
                </g>
                <g id="Group_416" data-name="Group 416" transform="translate(7.495 6.162)">
                    <path id="Path_643" data-name="Path 643" d="M1255.391,194.157a.325.325,0,0,1-.146-.615c.366-.184.732-.389.838-.7a.892.892,0,0,0-.2-.8,3.3,3.3,0,0,0-.844-.662.325.325,0,0,1,.345-.55,3.848,3.848,0,0,1,1.005.807,1.523,1.523,0,0,1,.311,1.416,2.048,2.048,0,0,1-1.159,1.063A.324.324,0,0,1,1255.391,194.157Z" transform="translate(-1254.882 -190.786)" />
                </g>
                <path id="Path_644" data-name="Path 644" d="M1252.748,200.466h3.993v2.928a3.993,3.993,0,0,1-3.993,3.994h0a3.994,3.994,0,0,1-3.994-3.994v-2.928Z" transform="translate(-1244.544 -189.116)" fill="#fdf7f4" />
            </g>
            <ellipse id="Ellipse_68" data-name="Ellipse 68" cx="4.074" cy="4.992" rx="4.074" ry="4.992" transform="translate(101.16 22.695)" fill="#fdb797" />
            <g id="Group_419" data-name="Group 419" transform="translate(104.908 33.83)">
                <path id="Path_645" data-name="Path 645" d="M1240.434,214.217c-10.532,0-14.927-2.32-16.759-4.266a4.357,4.357,0,0,1-1.39-3,.336.336,0,0,1,.344-.3.324.324,0,0,1,.3.341h0a3.778,3.778,0,0,0,1.245,2.549c1.755,1.838,6,4.03,16.256,4.03a.325.325,0,1,1,0,.649Z" transform="translate(-1222.283 -206.646)" />
            </g>
            <path id="Path_646" data-name="Path 646" d="M1254.057,220.362h2.156a1.475,1.475,0,0,0,1.475-1.475h0a1.475,1.475,0,0,0-1.475-1.475h-2.156a1.475,1.475,0,0,0-1.475,1.475h0A1.475,1.475,0,0,0,1254.057,220.362Z" transform="translate(-1131.434 -177.812)" />
            <g id="Group_420" data-name="Group 420" transform="translate(100.527 20.074)">
                <path id="Path_647" data-name="Path 647" d="M1219.46,180.982a6.655,6.655,0,0,1,.737.045v15.136a6.794,6.794,0,0,1-.737.045c-2.954,0-5.35-1.91-5.35-4.266v-6.693C1214.11,182.892,1216.505,180.982,1219.46,180.982Z" transform="translate(-1214.11 -180.982)" fill="#f2d91f" />
                <rect id="Rectangle_236" data-name="Rectangle 236" width="1.265" height="15.181" transform="translate(7.352 15.203) rotate(180)" fill="#f2d91f" />
            </g>
            <path id="Path_648" data-name="Path 648" d="M1257.757,252.662c-1.069-7.126-3.971-7.719-3.971-7.719,0,2.728-5.328,4.232-6.194,4.459-.867-.227-6.2-1.731-6.2-4.459,0,0-2.9.594-3.971,7.719l10.166-3.185Z" transform="translate(-1124.402 -190.586)" fill="#fdf7f4" />
            <path id="Path_649" data-name="Path 649" d="M1256.893,322.108l-2.485-63.419,1.723-4.352-2.97-.931v-.082l-.131.041-.13-.041v.082l-2.97.931,1.724,4.352-2.486,63.419,3.862,4.236Z" transform="translate(-1129.85 -194.476)" fill="#f2d91f" />
            <path id="Path_650" data-name="Path 650" d="M1351.351,348.714h-29.31l-2.114-38-.251-4.458,2.12-41.923s19.069,11.933,22.154,36.045Z" transform="translate(-1162.566 -199.582)" fill="#005296" />
            <path id="Path_651" data-name="Path 651" d="M1329.72,388.866h-7.462l-2.114-38A265.112,265.112,0,0,1,1329.72,388.866Z" transform="translate(-1162.784 -239.734)" />
            <path id="Path_652" data-name="Path 652" d="M1239.9,154.36s-9.362,8.969-18.374,8.969c-9.273,0-13.619-6.356-10.294-13.482s13.185-5.281,18.469-5.281,12.482-2.18,18.347-.214c3.366,1.128,8.4,6.581,4.061,22.19l-2.169.772s.769-13.051-5.425-13.051C1243.563,154.262,1239.9,154.36,1239.9,154.36Z" transform="translate(-1111.73 -143.53)" />
            <path id="Path_653" data-name="Path 653" d="M1216.925,226.416a1.407,1.407,0,0,0-1.529.5,9.956,9.956,0,0,0,.734-1.937,3.57,3.57,0,0,0,.109-1.624,1.553,1.553,0,0,0-1.019-1.189,1.427,1.427,0,0,0-.809,0,2.712,2.712,0,0,0,.958-1.828c.034-.9-.781-1.828-1.658-1.644a2.3,2.3,0,0,0-.924.509c-.136.1-.51.1-.666.2a3.99,3.99,0,0,0,.918-1.611,1.433,1.433,0,0,0-.761-1.651,1.909,1.909,0,0,0-1.278.143,14.273,14.273,0,0,0-4.465,3.113,39.193,39.193,0,0,0-9.419,14.183,30.707,30.707,0,0,0-1.773,6.041,17.765,17.765,0,0,0-.231,2.426,16.675,16.675,0,0,0,.088,2.311c.074.747,5.13,7.163,9.161,5.953a12.64,12.64,0,0,0,1.59-.577c2.215-.979,4.132-2.793,6.062-7.5.822-2.012,1.244-4.506,1.943-6.8a14.351,14.351,0,0,1,1.373-3.228q1.029-1.662,2.045-3.337a2.578,2.578,0,0,0,.483-1.223A1.3,1.3,0,0,0,1216.925,226.416Z" transform="translate(-1104.763 -177.196)" fill="#fdb797" />
            <g id="Group_421" data-name="Group 421" transform="translate(98.062 41.889)">
                <path id="Path_654" data-name="Path 654" d="M1209.836,234.474a.353.353,0,0,1-.047,0,.326.326,0,0,1-.274-.368c1.058-7.191,8.789-12.162,9.118-12.37a.325.325,0,0,1,.348.549c-.078.049-7.81,5.023-8.822,11.916A.326.326,0,0,1,1209.836,234.474Z" transform="translate(-1209.511 -221.682)" />
            </g>
            <g id="Group_422" data-name="Group 422" transform="translate(101.388 44.646)">
                <path id="Path_655" data-name="Path 655" d="M1216.042,238.584a.315.315,0,0,1-.1-.014.324.324,0,0,1-.214-.406c2.484-8.046,7.855-11.167,8.082-11.3a.325.325,0,0,1,.321.565c-.054.03-5.378,3.136-7.782,10.922A.324.324,0,0,1,1216.042,238.584Z" transform="translate(-1215.717 -226.825)" />
            </g>
            <g id="Group_423" data-name="Group 423" transform="translate(104.721 49.4)">
                <path id="Path_656" data-name="Path 656" d="M1222.26,245.469a.323.323,0,0,1-.312-.414,22.108,22.108,0,0,1,5.682-9.275.325.325,0,1,1,.439.479,21.861,21.861,0,0,0-5.5,8.976A.325.325,0,0,1,1222.26,245.469Z" transform="translate(-1221.935 -235.695)" />
            </g>
            <path id="Path_657" data-name="Path 657" d="M1180.874,273.231s-5.015,23.629-12.532,37.785c-2.834,5.328-6.028,9.317-9.439,10.193-12.47,3.207-20.931-4.812-18.641-14.6,3.955-16.935,19.252-32.939,25.933-39.287,1.943-1.848,3.16-2.875,3.16-2.875s.048.02.136.048c1.06.428,8.216,3.391,10.839,7.686A6.774,6.774,0,0,1,1180.874,273.231Z" transform="translate(-1079.143 -199.635)" fill="#005296" />
            <g id="Group_424" data-name="Group 424" transform="translate(60.794 64.485)">
                <path id="Path_658" data-name="Path 658" d="M1140.305,306.65a.354.354,0,0,1-.075-.009.325.325,0,0,1-.242-.39c3.987-17.074,19.528-33.275,26.026-39.448,1.927-1.834,3.162-2.877,3.174-2.887a.327.327,0,0,1,.337-.05c.006,0,.042.017.1.035a.325.325,0,0,1-.16.629c-.37.319-1.463,1.275-3.008,2.744-6.455,6.133-21.892,22.222-25.84,39.125A.325.325,0,0,1,1140.305,306.65Z" transform="translate(-1139.98 -263.84)" />
            </g>
            <g id="Group_425" data-name="Group 425" transform="translate(85.242 69.636)">
                <path id="Path_659" data-name="Path 659" d="M1199.5,285.392a.325.325,0,0,1-.306-.218c-2.492-7.12-13.273-11.055-13.382-11.095a.325.325,0,0,1,.219-.611,35.053,35.053,0,0,1,5.886,2.919c2.848,1.765,6.529,4.685,7.889,8.573a.324.324,0,0,1-.2.414A.328.328,0,0,1,1199.5,285.392Z" transform="translate(-1185.592 -273.45)" />
            </g>
            <g id="Group_426" data-name="Group 426" transform="translate(138.168 90.969)">
                <rect id="Rectangle_237" data-name="Rectangle 237" width="14.772" height="8.518" transform="translate(0 2.266)" fill="#fdf7f4" />
                <rect id="Rectangle_238" data-name="Rectangle 238" width="2.183" height="4.533" transform="translate(6.295 0)" />
            </g>
            <g id="Group_427" data-name="Group 427" transform="translate(45.81 79.32)">
                <path id="Path_661" data-name="Path 661" d="M1106.733,274.627a1.2,1.2,0,1,0,1.2-1.2A1.2,1.2,0,0,0,1106.733,274.627Z" transform="translate(-1093.896 -273.424)" fill="#fdf7f4" />
                <path id="Path_662" data-name="Path 662" d="M1093.175,274.627a1.2,1.2,0,1,0,1.2-1.2A1.2,1.2,0,0,0,1093.175,274.627Z" transform="translate(-1086.757 -273.424)" fill="#fdf7f4" />
                <path id="Path_663" data-name="Path 663" d="M1079.617,274.627a1.2,1.2,0,1,0,1.2-1.2A1.2,1.2,0,0,0,1079.617,274.627Z" transform="translate(-1079.617 -273.424)" fill="#fdf7f4" />
            </g>
        </g>
    </g>
</svg>