<svg xmlns="http://www.w3.org/2000/svg" width="360.004" height="640" viewBox="0 0 360.004 640">
  <g id="My_loop_screen_BG_shape_1" data-name="My loop screen BG shape 1" transform="translate(1920.582 -132.74)">
    <path id="Path_803" data-name="Path 803" d="M-1560.582,563.153V375.875c-20.15,26.712-40.939,54.321-42.541,86.4C-1604.952,498.915-1581.381,531.535-1560.582,563.153Z" fill="#e4e9ed"/>
    <path id="Path_804" data-name="Path 804" d="M-1901.053,425.318c2.252-13.571-6.8-27.18-19.529-34.389v67.785c2.883-3.907,5.771-7.813,8.6-11.757C-1907.191,440.262-1902.369,433.249-1901.053,425.318Z" fill="#e5edf7"/>
    <path id="Path_805" data-name="Path 805" d="M-1833.558,772.74h-87.02V643.34c46.72,19.94,60.91,76.03,82.42,120.54Q-1836.013,768.335-1833.558,772.74Z" fill="#e4e9ed"/>
    <path id="Path_806" data-name="Path 806" d="M-1560.578,703.56v69.18h-123.81c11.53-9.42,23.07-18.8,36.05-26.39C-1620.658,730.181-1585.7,721.34-1560.578,703.56Z" fill="#e5edf7"/>
    <path id="Path_807" data-name="Path 807" d="M-1560.578,132.74v58.59c-28.66-12.069-63.83-12.12-91.57-26.94-14.73-7.869-26.61-19.5-37.99-31.65Z" fill="#e5edf7"/>
    <path id="Path_808" data-name="Path 808" d="M-1859.128,132.74c-10.15,18.79-15.32,40.09-17.59,61.12-3.13,29.161-1.4,59.28-11.88,86.94-5.94,15.68-17.41,30.59-31.98,40.01V132.74Z" fill="#e4e9ed"/>
  </g>
</svg>
